<svg xmlns="http://www.w3.org/2000/svg" viewBox="0 0 372.13 493.15"><defs><style>.a{fill:#e7f3fc;}.b{fill:#fff;}.c{fill:#a7acb9;}.d{fill:#e0e2e8;}.e{fill:#f9cec3;}.f{fill:#f59b84;}.g{fill:#d1e7f8;}.h{fill:#add5f3;}.i{fill:#4f5b77;}.j{fill:#e5f8ea;}.k{fill:#84dc97;}.l{fill:#4f5b78;}.m{fill:#dedfe7;}.n{fill:#505a79;}.o{fill:#fff2d1;}</style></defs><title>404</title><path class="a" d="M73.62,41.18a65.06,65.06,0,0,1,15-2l289.95-5.52L382.27,37l4.94-3.43,47.63-2.24,8.39,265.56-8.3,1.82,3.35.94,3.09,4.61,4,105.94s-5.44-5.56-8.11-5.51-4.67.09-5-1.9-2.71-2.28-4.35-.92-5.6,3.77-9.95,2.86-8.69-1.17-9.73-3.15-6.69-1.21-6.69-1.21l-229,17.36a10.67,10.67,0,0,1-4.38-2.25c-1.7-1.63-4.66.42-5.29,2.43s-3.3,1.73-3.3,1.73l-8,.17-4.24,4.73s-6.15-7.88-7.49-8.19-4.28,2.75-5.64,1.44-7-.53-7.4-3.19-1.72-3-2.72-2.95-5.36-1.23-7.41-3.86-6.12-6.22-12.08-4.1-11.17,8.55-11.17,8.55-4.4-3.58-6.4-3.55-5.06-2.9-5.06-2.9l-7-298.92,3.65-1.07-3.75-4.26Z" transform="translate(-73.25 -11.75)"/><path class="a" d="M399.49,381.37s4.93,83.92,9.19,115.18c-14.32.94-44.29,2.51-44.29,2.51s-7.31-103.88-10.51-114.49" transform="translate(-73.25 -11.75)"/><path class="a" d="M309.12,397.76,313.79,503l45.29-2.53s-4.29-89.06-2.76-98.77" transform="translate(-73.25 -11.75)"/><path class="a" d="M264.22,385.95s6.29,102.9,5.58,117.92c11-1.54,46.27-3.88,46.27-3.88s-5.61-101.91-7-106.22" transform="translate(-73.25 -11.75)"/><path class="a" d="M217.09,396.85l2,106.65,45.35.47s1.7-85.41.73-101.71" transform="translate(-73.25 -11.75)"/><path class="a" d="M171.29,390.72s3,87.29-.87,112c13.34.08,44.72,2.15,44.72,2.15s2.91-57.07,2.25-92.06" transform="translate(-73.25 -11.75)"/><path class="b" d="M433.67,297l-3.33-1,8.33-1.67L435.33,28.67,387.67,30l-5,3.33L379,30H89a65.05,65.05,0,0,0-15,1.67V92l3.67,4.33-3.67,1,1.33,299s3,3,5,3S86.67,403,86.67,403,92,396.67,98,394.67s10,1.67,12,4.33,6.33,4,7.33,4,2.33.33,2.67,3,6,2,7.33,3.33,4.33-1.67,5.67-1.33,7.33,8.33,7.33,8.33l4.33-4.65,8,0s2.67.33,3.33-1.67,3.67-4,5.33-2.33a10.15,10.15,0,0,0,3.86,2.19c0,27.8-.42,69.34-3.19,85.14,13.33.33,44.67,3,44.67,3s3.89-55.45,4-90.55h0v89.22L256,498s2.58-66.42,2.74-93.28H259c1.21,31.47,3,83,2.34,93.29,9.26-1.12,35.79-2.48,43.93-2.88l.07,2.88,45.33-1.67s-2.34-80.4-1.1-96.76l.4,0c2.84,33.1,6,95.45,6,95.45s30-1,44.33-1.67c-2.56-21.92-5-69.61-6.18-96.29l.84,0s5.67-.67,6.67,1.33,5.33,2.33,9.67,3.33,8.33-1.33,10-2.67,4-1,4.33,1,2.33,2,5,2,8,5.67,8,5.67l-2-106Z" transform="translate(-73.25 -11.75)"/><path class="c" d="M182.33,482.67h0a1,1,0,0,1-1-1c0-2.51,1-61.59,4-75.53a1,1,0,0,1,2,.42c-2.95,13.75-4,74.53-4,75.14A1,1,0,0,1,182.33,482.67Z" transform="translate(-73.25 -11.75)"/><path class="c" d="M229.33,482.67a1,1,0,0,1-1-.93c-.72-9.89-.39-25.17-.06-39.95.27-12.3.52-23.92.06-30.05a1,1,0,0,1,2-.15c.47,6.22.21,17.89-.06,30.25-.31,14-.65,30,.06,39.76a1,1,0,0,1-.92,1.07Z" transform="translate(-73.25 -11.75)"/><path class="c" d="M279.33,481a1,1,0,0,1-1-.92c-1.7-20.44-2.67-61.5-1.66-70.86a1,1,0,0,1,1.1-.89,1,1,0,0,1,.89,1.1c-1,9.08,0,50.57,1.67,70.48a1,1,0,0,1-.91,1.08Z" transform="translate(-73.25 -11.75)"/><path class="c" d="M323.33,482.67a1,1,0,0,1-1-.93c-1.39-21.14-.26-63.24,0-70.1a1,1,0,0,1,1-1,1,1,0,0,1,1,1c-.26,6.85-1.38,48.84,0,69.9a1,1,0,0,1-.93,1.06Z" transform="translate(-73.25 -11.75)"/><path class="c" d="M371.33,482.67a1,1,0,0,1-1-.92c-1-13.57-3.67-66.41-3-72.52a1,1,0,0,1,2,.22c-.65,5.86,2,59,3,72.15a1,1,0,0,1-.92,1.07Z" transform="translate(-73.25 -11.75)"/><path class="d" d="M190.67,471.33a1,1,0,0,1-1-1c0-5.75.55-14,1.13-22.64.78-11.58,1.58-23.56,1.2-31.31a1,1,0,0,1,2-.1c.38,7.86-.42,19.9-1.2,31.54-.58,8.65-1.13,16.82-1.13,22.51A1,1,0,0,1,190.67,471.33Z" transform="translate(-73.25 -11.75)"/><path class="d" d="M237.33,471.33a1,1,0,0,1-1-.94c-.52-8.58-.23-30-.08-41.53,0-3.29.08-5.75.08-6.87a1,1,0,0,1,2,0c0,1.12,0,3.59-.08,6.89-.15,11.49-.44,32.87.08,41.38a1,1,0,0,1-.94,1.06Z" transform="translate(-73.25 -11.75)"/><path class="d" d="M287.33,471.33a1,1,0,0,1-1-.86c-2-13.91-2.34-50.1-2.34-50.47a1,1,0,0,1,1-1h0a1,1,0,0,1,1,1c0,.36.36,36.43,2.32,50.2a1,1,0,0,1-.85,1.13Z" transform="translate(-73.25 -11.75)"/><path class="d" d="M331,471.33a1,1,0,0,1-1-1c0-1.58-1-38.84,0-48.46a1,1,0,0,1,2,.21c-1,9.49,0,47.82,0,48.21a1,1,0,0,1-1,1Z" transform="translate(-73.25 -11.75)"/><path class="d" d="M378.67,470a1,1,0,0,1-1-1c0-4.82-.42-13-.86-21.61-.58-11.41-1.19-23.21-.8-27.48a1,1,0,1,1,2,.18c-.38,4.13.23,15.85.81,27.19.44,8.66.86,16.85.86,21.72A1,1,0,0,1,378.67,470Z" transform="translate(-73.25 -11.75)"/><path class="d" d="M95.67,373H89a1,1,0,0,1,0-2h6.67a1,1,0,1,1,0,2Z" transform="translate(-73.25 -11.75)"/><path class="d" d="M123.33,373h-13a1,1,0,1,1,0-2h13a1,1,0,0,1,0,2Z" transform="translate(-73.25 -11.75)"/><path class="d" d="M151.67,373H138a1,1,0,0,1,0-2h13.67a1,1,0,0,1,0,2Z" transform="translate(-73.25 -11.75)"/><path class="d" d="M179.33,373H165.67a1,1,0,1,1,0-2h13.67a1,1,0,1,1,0,2Z" transform="translate(-73.25 -11.75)"/><path class="d" d="M207.33,373H193.1a1,1,0,1,1,0-2h14.24a1,1,0,1,1,0,2Z" transform="translate(-73.25 -11.75)"/><path class="d" d="M234.71,373h-13a1,1,0,1,1,0-2h13a1,1,0,0,1,0,2Z" transform="translate(-73.25 -11.75)"/><path class="d" d="M263.33,373H248.67a1,1,0,1,1,0-2h14.67a1,1,0,0,1,0,2Z" transform="translate(-73.25 -11.75)"/><path class="d" d="M290,373H277.27a1,1,0,0,1,0-2H290a1,1,0,0,1,0,2Z" transform="translate(-73.25 -11.75)"/><path class="d" d="M318.67,373H305.33a1,1,0,0,1,0-2h13.33a1,1,0,0,1,0,2Z" transform="translate(-73.25 -11.75)"/><path class="d" d="M346,373H332.67a1,1,0,0,1,0-2H346a1,1,0,0,1,0,2Z" transform="translate(-73.25 -11.75)"/><path class="d" d="M374,373H361.33a1,1,0,0,1,0-2H374a1,1,0,0,1,0,2Z" transform="translate(-73.25 -11.75)"/><path class="d" d="M400.33,373h-11a1,1,0,0,1,0-2h11a1,1,0,0,1,0,2Z" transform="translate(-73.25 -11.75)"/><path class="d" d="M423.67,373H416a1,1,0,0,1,0-2h7.67a1,1,0,0,1,0,2Z" transform="translate(-73.25 -11.75)"/><path class="d" d="M321,349H193.1a3,3,0,1,1,0-6H321a3,3,0,0,1,0,6Z" transform="translate(-73.25 -11.75)"/><polygon class="a" points="138.75 410.25 145.42 485.15 137.42 484.92 138.75 410.25"/><polygon class="a" points="186.71 419.25 193.42 485.15 188.08 486.25 186.71 419.25"/><path class="a" d="M305.54,440.5s5.46,54.3,9.12,57.4c-4.7.1-9.33.1-9.33.1l-.07-2.88,2.41-.12Z" transform="translate(-73.25 -11.75)"/><polygon class="a" points="278.94 411 288.26 483.06 282.75 483.25 278.94 411"/><rect class="e" x="92.42" y="315.92" width="183.33" height="7" rx="1.74" ry="1.74"/><path class="f" d="M347.26,335.67H167.41a2.74,2.74,0,0,1-2.74-2.74v-3.52a2.74,2.74,0,0,1,2.74-2.74H347.26a2.74,2.74,0,0,1,2.74,2.74v3.52A2.74,2.74,0,0,1,347.26,335.67Zm-179.85-7a.74.74,0,0,0-.74.74v3.52a.75.75,0,0,0,.74.74H347.26a.75.75,0,0,0,.74-.74v-3.52a.74.74,0,0,0-.74-.74Z" transform="translate(-73.25 -11.75)"/><path class="g" d="M392.1,306H121.57a4.75,4.75,0,0,1-4.74-4.74l1-175.53a4.75,4.75,0,0,1,4.74-4.74l267.53-2a4.75,4.75,0,0,1,4.74,4.74l2,177.53A4.75,4.75,0,0,1,392.1,306Z" transform="translate(-73.25 -11.75)"/><path class="h" d="M116.67,176.67s41.67,1.33,47,0,0-17.67,0-17.67-11-1.67-16.33,7C144.33,161,119,159.67,116.67,176.67Z" transform="translate(-73.25 -11.75)"/><path class="h" d="M349,209.67s41.67,1.33,47,0A108.4,108.4,0,0,0,396,192s-11-1.67-16.33,7C376.67,194,351.33,192.67,349,209.67Z" transform="translate(-73.25 -11.75)"/><path class="h" d="M116.83,240s13.83-1.67,19.5,3.33c5.67-8,29.67-13.33,38-9S172.67,306,172.67,306h-51.1c-5.9,0-4.74-4.74-4.74-4.74Z" transform="translate(-73.25 -11.75)"/><path class="h" d="M338,224c7.33.33,23,9.67,30.33,12.67s25,2.31,27.82,4.32l.68,60.28S395.2,306,392.1,306H338Z" transform="translate(-73.25 -11.75)"/><path class="b" d="M171.67,306S173,258.33,173,228.67s-.67-89-.67-89h141L341,168.07V306Z" transform="translate(-73.25 -11.75)"/><path class="i" d="M341.75,306.75H170.9l0-.77c0-.48,1.33-48,1.33-77.31s-.66-88.4-.67-89v-.76H313.65l28.1,28.84Zm-169.31-1.5H340.25V168.37l-27.23-28H173.09c.08,7,.66,60.73.66,88.25C173.75,255.95,172.61,299,172.44,305.25Z" transform="translate(-73.25 -11.75)"/><path class="i" d="M241.33,235.08h0l-48-1.55a.75.75,0,0,1-.73-.77.78.78,0,0,1,.77-.73l48,1.55a.75.75,0,0,1,0,1.5Z" transform="translate(-73.25 -11.75)"/><path class="i" d="M234.49,252.84c-3.86,0-9.13-.14-15.68-.32-10.12-.29-20.59-.59-25.4-.1a.74.74,0,0,1-.82-.67.75.75,0,0,1,.67-.82c4.91-.49,15.43-.19,25.6.1s20.47.58,22.22-.06a.75.75,0,1,1,.51,1.41C240.66,252.71,238.25,252.84,234.49,252.84Z" transform="translate(-73.25 -11.75)"/><path class="i" d="M193.33,271.75a.75.75,0,0,1-.12-1.49c8.31-1.33,45.24-.06,46.81,0a.75.75,0,0,1-.05,1.5c-.38,0-38.36-1.32-46.52,0Z" transform="translate(-73.25 -11.75)"/><path class="i" d="M193.33,290.08a.75.75,0,0,1,0-1.5c7.27-.33,46.31,0,46.71,0a.75.75,0,0,1,.74.76.76.76,0,0,1-.76.74c-.39,0-39.4-.33-46.63,0Z" transform="translate(-73.25 -11.75)"/><path class="i" d="M271,196.08a.75.75,0,0,1-.26,0c-2.74-1-21-2.85-30.52,0a.75.75,0,0,1-.43-1.44c10-3,28.55-1.08,31.48,0a.75.75,0,0,1-.26,1.45Z" transform="translate(-73.25 -11.75)"/><path class="j" d="M283,265V236c-11,0-29.67,8-29.67,29s15.33,29.67,29.67,29.67,28-12.67,28-29.33C297,265.33,283,265,283,265Z" transform="translate(-73.25 -11.75)"/><path class="k" d="M283,295.17c-15,0-30.17-9.33-30.17-30.17,0-20.35,17.64-29.5,30.17-29.5h.5v29c2.6.06,15.12.32,27.5.32h.5v.5C311.5,281.5,298.45,295.17,283,295.17Zm-.5-58.66c-9.69.24-28.67,7.33-28.67,28.49,0,14.52,9,29.17,29.17,29.17,13.15,0,27.22-11.36,27.5-28.33-13.68,0-27.37-.33-27.51-.33h-.49Z" transform="translate(-73.25 -11.75)"/><path class="j" d="M291,258V228.67s13.33-.67,21.67,9,7,18.33,7,18.33Z" transform="translate(-73.25 -11.75)"/><path class="k" d="M290.5,258.54V228.19l.47,0c.14,0,13.67-.57,22.07,9.17s7.17,18.37,7.12,18.74l-.06.39Zm1-29.38v28.31l27.71-1.93c.12-1.78.16-9.32-6.92-17.54S293.93,229.16,291.5,229.16Z" transform="translate(-73.25 -11.75)"/><circle class="j" cx="139.88" cy="186.12" r="2.54"/><circle class="j" cx="150.13" cy="185.33" r="2.54"/><circle class="j" cx="146.21" cy="194.58" r="2.54"/><circle class="j" cx="216.13" cy="186.12" r="2.54"/><circle class="j" cx="226.29" cy="186.12" r="2.54"/><circle class="j" cx="219.88" cy="194.87" r="2.54"/><circle class="l" cx="221.62" cy="170.28" r="4.95"/><circle class="l" cx="145.87" cy="170.28" r="4.95"/><path class="m" d="M313.33,139.67S315.5,160.25,315,168c7.5,1,26,.07,26,.07Z" transform="translate(-73.25 -11.75)"/><path class="l" d="M325.64,169.22a91.56,91.56,0,0,1-10.74-.47.75.75,0,0,1-.65-.79c.49-7.6-1.64-28-1.67-28.21a.75.75,0,0,1,1.28-.6l27.67,28.4a.75.75,0,0,1-.5,1.27C340.55,168.84,333,169.22,325.64,169.22Zm-9.85-1.88c6.31.69,19,.24,23.51.05l-25-25.66C314.82,147,316.06,160.7,315.79,167.34Z" transform="translate(-73.25 -11.75)"/><path class="i" d="M392.1,306.75H121.57a5.49,5.49,0,0,1-5.49-5.49l1-175.53a5.49,5.49,0,0,1,5.49-5.48l267.52-2a5.49,5.49,0,0,1,5.49,5.49l2,177.52A5.49,5.49,0,0,1,392.1,306.75Zm-2-187-267.52,2a4,4,0,0,0-4,4l-1,175.53a4,4,0,0,0,4,4H392.1a4,4,0,0,0,4-4l-2-177.52A4,4,0,0,0,390.1,119.75Z" transform="translate(-73.25 -11.75)"/><path class="n" d="M224.51,91.8v11.07q0,2.78-2.72,2.78-3.17,0-3.17-4.34,0-.54.06-1.53t.06-1.35l0-6.79-13.2-.33a39.76,39.76,0,0,1-5.69-.27q-2.72-.45-2.72-2.12a6.09,6.09,0,0,1,1.65-3.41l2.57-3.05L216,61a6,6,0,0,1,5.09-2.78q3.38,0,3.38,2.93V86q.51,0,1.23,0,5.51,0,5.51,3A2.62,2.62,0,0,1,229,91.65,19.68,19.68,0,0,1,224.51,91.8Zm-5.81-25.32q-8,12.75-12.48,19.09l12.48.3Z" transform="translate(-73.25 -11.75)"/><path class="n" d="M251.36,106q-9.1,0-13.29-8.32-3.17-6.4-3.17-16.67A27.51,27.51,0,0,1,239,65.92q4.88-7.57,13.26-7.57A13.9,13.9,0,0,1,264.55,65a25.29,25.29,0,0,1,3.8,14.15q0,13.41-4.25,20.12T251.36,106Zm.9-41.92q-5.57,0-8.83,5.66a21.25,21.25,0,0,0-2.72,10.8q0,9.85,2.66,14.78a8.57,8.57,0,0,0,8,4.94q6.34,0,9.1-7.24a36.23,36.23,0,0,0,1.91-12.75q0-8.11-2.53-12.15A8.36,8.36,0,0,0,252.25,64.12Z" transform="translate(-73.25 -11.75)"/><path class="n" d="M299.33,91.8v11.07q0,2.78-2.72,2.78-3.17,0-3.17-4.34,0-.54.06-1.53t.06-1.35l0-6.79-13.2-.33a39.77,39.77,0,0,1-5.69-.27q-2.72-.45-2.72-2.12a6.08,6.08,0,0,1,1.65-3.41l2.57-3.05L290.86,61a6,6,0,0,1,5.09-2.78q3.38,0,3.38,2.93V86q.51,0,1.23,0,5.5,0,5.51,3a2.62,2.62,0,0,1-2.27,2.72A19.66,19.66,0,0,1,299.33,91.8Zm-5.81-25.32q-8,12.75-12.48,19.09l12.48.3Z" transform="translate(-73.25 -11.75)"/><path class="n" d="M322.84,103.42a5.1,5.1,0,0,1-1.14,2.77,5.7,5.7,0,0,1-3,.49,3.23,3.23,0,0,1-2.22-1.79,4.48,4.48,0,0,1-.89-2.8,5,5,0,0,1,1.14-2.75,5.84,5.84,0,0,1,3-.47,3.29,3.29,0,0,1,2.22,1.79A4.52,4.52,0,0,1,322.84,103.42ZM328,59.78,322.87,93a2.66,2.66,0,0,1-5.3-.54c.08-.81,2.1-30.36,2.4-33.23.18-1.77,2.15-2.46,3.92-2.28S328.17,58,328,59.78Z" transform="translate(-73.25 -11.75)"/><path class="n" d="M87.83,102.92h0c-4-.18-9.3-4.43-10.71-6.1a.75.75,0,0,1,1.14-1c1.25,1.47,6.09,5.41,9.63,5.57a.75.75,0,0,1,0,1.5Z" transform="translate(-73.25 -11.75)"/><path class="n" d="M372,40.08a.75.75,0,0,1-.37-1.4l10.67-6A.75.75,0,0,1,383,34l-10.67,6A.75.75,0,0,1,372,40.08Z" transform="translate(-73.25 -11.75)"/><path class="n" d="M422.5,297.25a.75.75,0,0,1,0-1.5l7.83-.5a.74.74,0,0,1,.8.7.75.75,0,0,1-.7.8l-7.83.5Z" transform="translate(-73.25 -11.75)"/><polygon class="a" points="46.75 376.5 40.79 390.25 46.75 391.88 46.75 376.5"/><path class="i" d="M120,406.75h0a.75.75,0,0,1-.72-.78l.67-19a.74.74,0,0,1,.78-.72.75.75,0,0,1,.72.78l-.67,19A.75.75,0,0,1,120,406.75Z" transform="translate(-73.25 -11.75)"/><polygon class="a" points="91.76 372.24 86.77 395.31 92.42 398.25 91.76 372.24"/><polygon class="a" points="320.17 368.37 329.52 387.68 327.08 385.58 321.75 385.25 320.17 368.37"/><path class="i" d="M355.29,495.77l0-.74c-.05-1-5.36-104-8.31-114.5l1.44-.41c2.89,10.27,7.8,104,8.32,114.1,4.61-.16,29.63-1,42.79-1.6C395.9,461,392.62,378.86,392.58,378l1.5-.06c0,.84,3.38,84.33,7,115.28l.09.8-.8,0c-14.17.66-44,1.66-44.34,1.67Z" transform="translate(-73.25 -11.75)"/><path class="i" d="M304.6,498.78l-.11-4.37,2.39-.12-5-101.58,1.5-.07,5,103.08-2.42.12,0,1.39,43.83-1.61c-.22-8.81-2-83.15-.35-92.4l1.48.26c-1.69,9.49.38,92,.4,92.85l0,.74-.74,0Z" transform="translate(-73.25 -11.75)"/><path class="i" d="M260.52,498.85l.06-.9c1-14.79-3.29-116.89-3.33-117.92l1.5-.06c0,1,4.17,99.53,3.38,117.18,10.81-1.2,39.75-2.62,44.76-2.87-1.28-35.44-3.92-102.07-4.94-105.4l1.43-.44c1.35,4.38,4.88,102.36,5,106.53l0,.74-.74,0c-.35,0-35.43,1.68-46.28,3Z" transform="translate(-73.25 -11.75)"/><path class="i" d="M256.72,498.77l-46.8-1.38V390h1.5V495.94l43.86,1.29c.32-8.43,3.25-85.58,2.63-100.88l1.5-.06c.66,16.16-2.63,100.88-2.66,101.74Z" transform="translate(-73.25 -11.75)"/><path class="i" d="M207.35,498.81l-.75-.06c-.31,0-31.46-2.67-44.62-3l-.87,0,.15-.86c4.27-24.32,3-111,3-111.86l1.5,0c0,.86,1.26,85.73-2.87,111.29,12.44.38,38.36,2.52,43.1,2.92.5-6.26,3.94-50.32,3.94-82.52h1.5c0,34.63-4,82.91-4,83.39Z" transform="translate(-73.25 -11.75)"/><path class="i" d="M140.33,417.08h0a.75.75,0,0,1-.56-.3c-2.72-3.63-6.15-7.75-6.94-8.06a5.22,5.22,0,0,0-1.74.71c-1.37.71-3.09,1.6-4.25.44a6.71,6.71,0,0,0-2.6-.76c-2.09-.38-4.68-.84-5-3-.29-2.34-1.35-2.34-1.92-2.34-1.1,0-5.71-1.34-7.93-4.3s-5.8-5.86-11.16-4.07c-5.73,1.91-10.95,8-11,8.1a.75.75,0,0,1-.51.26.74.74,0,0,1-.55-.17c-1.6-1.35-4.59-3.49-5.85-3.49-2.25,0-5.2-2.89-5.53-3.22a.75.75,0,0,1-.22-.53l-1.33-299a.75.75,0,0,1,.55-.73l2.53-.69-2.91-3.44a.75.75,0,0,1-.18-.48V31.67a.75.75,0,0,1,.56-.73A65.18,65.18,0,0,1,89,29.25H379a.75.75,0,0,1,.5.19l3.23,2.94,4.51-3a.75.75,0,0,1,.4-.13l47.67-1.33a.74.74,0,0,1,.54.21.75.75,0,0,1,.23.53l3.33,265.67a.75.75,0,0,1-.6.75l-5.39,1.08.45.14a.75.75,0,0,1,.42.31l3,4.67a.75.75,0,0,1,.12.39l2,106a.75.75,0,0,1-1.3.53c-2-2.1-5.75-5.43-7.45-5.43-2.73,0-5.3,0-5.74-2.63a1.28,1.28,0,0,0-.82-1.06,2.45,2.45,0,0,0-2.3.53c-.85.68-5.37,4-10.64,2.81-1-.22-1.92-.41-2.84-.59-3.43-.67-6.39-1.26-7.33-3.14-.52-1-3.83-1.17-5.91-.92a.75.75,0,1,1-.18-1.49c1-.12,6.25-.61,7.43,1.74.61,1.22,3.36,1.76,6.28,2.34.94.18,1.91.38,2.89.6,4.59,1.06,8.6-1.92,9.36-2.52a3.91,3.91,0,0,1,3.78-.76,2.79,2.79,0,0,1,1.76,2.22c.21,1.26,1.33,1.37,4.26,1.37,2.12,0,5.38,2.81,7.21,4.57l-2-103.92-2.74-4.25-3.07-.92a.75.75,0,0,1,.07-1.45l7.72-1.54L434.59,29.44,387.9,30.74,383.08,34a.75.75,0,0,1-.92-.07l-3.45-3.14H89a67.15,67.15,0,0,0-14.25,1.51V91.73l3.49,4.12a.75.75,0,0,1-.38,1.21l-3.11.85L76.08,396c1.13,1.07,3.1,2.57,4.25,2.57,1.82,0,4.94,2.33,6.25,3.38,1.47-1.62,6-6.29,11.18-8,6.54-2.18,10.85,1.94,12.84,4.59,1.85,2.47,6,3.7,6.73,3.7,2,0,3.11,1.23,3.41,3.66.13,1.07,2,1.42,3.73,1.72,1.45.26,2.7.49,3.39,1.18.39.39,1.61-.24,2.5-.71a4.45,4.45,0,0,1,2.81-.82c1.31.33,5.15,5.18,7.21,7.9l3.72-4a.75.75,0,0,1,.55-.24l8,0c.18,0,2.16.23,2.62-1.15a5.55,5.55,0,0,1,3.71-3.37,3,3,0,0,1,2.86.74,10.55,10.55,0,0,0,3.08,2.17.75.75,0,0,1-.56,1.39,11.82,11.82,0,0,1-3.58-2.5,1.46,1.46,0,0,0-1.46-.34,4.06,4.06,0,0,0-2.63,2.38c-.68,2-3,2.32-4.14,2.17l-7.58,0-4.11,4.41A.75.75,0,0,1,140.33,417.08Z" transform="translate(-73.25 -11.75)"/><polygon class="o" points="138.25 0.75 232.81 7.25 231.75 13 236.5 16.92 232.81 23.5 234.75 33.75 140.93 28.5 136 21.58 140.93 15 138.5 11 143.5 7.25 138.25 0.75"/><path class="i" d="M308,46.25h0L214.13,41a.75.75,0,0,1-.57-.31l-4.92-6.92a.75.75,0,0,1,0-.88l4.62-6.18-2.16-3.57a.75.75,0,0,1,.19-1l4.38-3.28L210.92,13a.75.75,0,0,1-.08-.82.76.76,0,0,1,.72-.4l94.56,6.5a.75.75,0,0,1,.69.88l-1,5.32,4.41,3.64a.75.75,0,0,1,.18.95l-3.56,6.35,1.89,10a.75.75,0,0,1-.74.89Zm-93.42-6.73,92.51,5.18-1.76-9.31a.76.76,0,0,1,.08-.51l3.38-6-4.27-3.52a.75.75,0,0,1-.26-.71l.91-4.92-92-6.32,4.17,5.16a.75.75,0,0,1-.13,1.07l-4.46,3.34,2.07,3.42a.75.75,0,0,1,0,.84l-4.6,6.15Z" transform="translate(-73.25 -11.75)"/></svg>