<svg xmlns="http://www.w3.org/2000/svg" viewBox="0 0 1150 106"><defs><style>.a{fill:#3a3b52;}.b,.d,.e,.f,.g,.h,.i,.k,.x{fill:none;}.b,.c{stroke:#3a3b52;}.b,.c,.d,.e,.f,.g,.h,.i,.k,.x{stroke-miterlimit:10;}.c,.j{fill:#fff;}.c,.d,.e,.f,.g,.h,.i,.k,.x{stroke-width:2px;}.d{stroke:#fdd6d4;}.e{stroke:#fce6b0;}.f{stroke:#cdedaa;}.g{stroke:#cbadef;}.h{stroke:#faacb6;}.i{stroke:#b9d5fd;}.k{stroke:#e2e2e2;}.l{fill:#e2e2e2;}.m{fill:#fdd6d4;}.n{fill:#fce6b0;}.o{fill:#cdedaa;}.p{fill:#cbadef;}.q{fill:#faacb6;}.r{fill:#b9d5fd;}.s,.y{fill:#ffe585;}.t{fill:#fdeecb;}.u{fill:#4a4b4d;}.v{fill:#ffebb5;}.w{fill:#f9f9f9;}.x{stroke:#cae0fe;}.y,.z{font-size:89.74px;font-family:Arial-Black, Arial Black;}.z{fill:#b5d1ff;}</style></defs><title>500</title><path class="a" d="M392,72v3h-6V72h6m1-1h-8v5h8V71Z" transform="translate(1 -48)"/><path class="a" d="M392,79v3h-6V79h6m1-1h-8v5h8V78Z" transform="translate(1 -48)"/><path class="a" d="M392,86v3h-6V86h6m1-1h-8v5h8V85Z" transform="translate(1 -48)"/><path class="a" d="M392,93v3h-6V93h6m1-1h-8v5h8V92Z" transform="translate(1 -48)"/><path class="a" d="M392,100v3h-6v-3h6m1-1h-8v5h8V99Z" transform="translate(1 -48)"/><path class="a" d="M392,107v3h-6v-3h6m1-1h-8v5h8v-5Z" transform="translate(1 -48)"/><line class="b" x1="334.5" y1="14.5" x2="393.5" y2="14.5"/><line class="b" x1="334.5" y1="71.5" x2="393.5" y2="71.5"/><path class="a" d="M389.28,58A2.72,2.72,0,0,1,392,60.72v60.55a2.72,2.72,0,0,1-2.72,2.72H334V58h55.28m0-2H332v70h57.28a4.73,4.73,0,0,0,4.72-4.72V60.72A4.73,4.73,0,0,0,389.28,56Z" transform="translate(1 -48)"/><path class="c" d="M191,76S12,72,0,69V99c12,3,191,7,191,7" transform="translate(1 -48)"/><path class="d" d="M191,80S12,76,0,73" transform="translate(1 -48)"/><path class="e" d="M191,85S12,81,0,78" transform="translate(1 -48)"/><path class="f" d="M191,89S12,85,0,82" transform="translate(1 -48)"/><path class="g" d="M191,94S12,90,0,87" transform="translate(1 -48)"/><path class="h" d="M191,99S12,95,0,92" transform="translate(1 -48)"/><path class="i" d="M191,104S12,100,0,97" transform="translate(1 -48)"/><rect class="j" x="193" y="24" width="16" height="38"/><path class="a" d="M207,73v36H193V73h14m2-2H191v40h18V71Z" transform="translate(1 -48)"/><rect class="j" x="204" y="21" width="16" height="44"/><path class="a" d="M218,70v42H204V70h14m2-2H202v46h18V68Z" transform="translate(1 -48)"/><rect class="j" x="218" y="18" width="16" height="50"/><path class="a" d="M232,67v48H218V67h14m2-2H216v52h18V65Z" transform="translate(1 -48)"/><rect class="j" x="231" y="14" width="16" height="58"/><path class="a" d="M245,63v56H231V63h14m2-2H229v60h18V61Z" transform="translate(1 -48)"/><rect class="j" x="245" y="4" width="89" height="78" rx="3.85" ry="3.85"/><path class="a" d="M329.15,53A2.85,2.85,0,0,1,332,55.85v70.29a2.85,2.85,0,0,1-2.85,2.85H247.85a2.85,2.85,0,0,1-2.85-2.85V55.85A2.85,2.85,0,0,1,247.85,53h81.29m0-2H247.85A4.86,4.86,0,0,0,243,55.85v70.29a4.86,4.86,0,0,0,4.85,4.85h81.29a4.86,4.86,0,0,0,4.85-4.85V55.85A4.86,4.86,0,0,0,329.15,51Z" transform="translate(1 -48)"/><polyline class="k" points="281 33 271 43 281 53"/><polyline class="k" points="298 53 308 43 298 33"/><circle class="l" cx="281.5" cy="42.5" r="1"/><path class="l" d="M280.5,90a.5.5,0,1,1-.5.5.5.5,0,0,1,.5-.5m0-1a1.5,1.5,0,1,0,1.5,1.5,1.5,1.5,0,0,0-1.5-1.5Z" transform="translate(1 -48)"/><circle class="l" cx="289.5" cy="42.5" r="1"/><path class="l" d="M288.5,90a.5.5,0,1,1-.5.5.5.5,0,0,1,.5-.5m0-1a1.5,1.5,0,1,0,1.5,1.5,1.5,1.5,0,0,0-1.5-1.5Z" transform="translate(1 -48)"/><circle class="l" cx="297.5" cy="42.5" r="1"/><path class="l" d="M296.5,90a.5.5,0,1,1-.5.5.5.5,0,0,1,.5-.5m0-1a1.5,1.5,0,1,0,1.5,1.5,1.5,1.5,0,0,0-1.5-1.5Z" transform="translate(1 -48)"/><rect class="m" x="335" y="24" width="51" height="2"/><rect class="n" x="335" y="31" width="51" height="2"/><rect class="o" x="335" y="38" width="51" height="2"/><rect class="p" x="335" y="45" width="51" height="2"/><rect class="q" x="335" y="52" width="51" height="2"/><rect class="r" x="335" y="59" width="51" height="2"/><polygon class="a" points="350 4 350 3 353 0 354 0 366 8 356 8 350 4"/><circle class="m" cx="407.5" cy="29.5" r="3.5"/><circle class="p" cx="420.5" cy="31.5" r="6.5"/><circle class="o" cx="408" cy="40" r="4"/><circle class="n" cx="416.5" cy="43.5" r="2.5"/><circle class="o" cx="427" cy="45" r="4"/><circle class="p" cx="410.5" cy="50.5" r="2.5"/><circle class="q" cx="420.5" cy="56.5" r="6.5"/><circle class="r" cx="408.5" cy="65.5" r="4.5"/><circle class="n" cx="421" cy="69" r="3"/><polygon class="s" points="704 23 717 23 712 29 721 29 708 32 712 26 704 23"/><polygon class="s" points="674 43 696 43 688 53 704 53 681 58 688 47 674 43"/><polygon class="s" points="704 71 715.73 71 711.47 76.33 720 76.33 707.73 79 711.47 73.13 704 71"/><path class="t" d="M721,98a1,1,0,0,1-1-1V91a1,1,0,0,1,1-1h13v8Z" transform="translate(1 -48)"/><path class="u" d="M733,91v6l-12,0,0-6h12m2-2H721a2,2,0,0,0-2,2v6a2,2,0,0,0,2,2h14V89Z" transform="translate(1 -48)"/><rect class="t" x="735" y="4" width="42" height="84" rx="3.17" ry="3.17"/><path class="u" d="M772.83,53A2.17,2.17,0,0,1,775,55.17v77.66a2.17,2.17,0,0,1-2.17,2.17H737.17a2.17,2.17,0,0,1-2.17-2.17V55.17A2.17,2.17,0,0,1,737.17,53h35.66m0-2H737.17A4.17,4.17,0,0,0,733,55.17v77.66a4.17,4.17,0,0,0,4.17,4.17h35.66a4.17,4.17,0,0,0,4.17-4.17V55.17A4.17,4.17,0,0,0,772.83,51Z" transform="translate(1 -48)"/><path class="v" d="M773.18,135H768V53h5.18A1.82,1.82,0,0,1,775,54.82v78.36A1.82,1.82,0,0,1,773.18,135Z" transform="translate(1 -48)"/><rect class="t" x="777" y="11" width="12" height="70"/><path class="u" d="M787,60v68H777V60h10m2-2H775v72h14V58Z" transform="translate(1 -48)"/><rect class="t" x="789" y="11" width="12" height="70"/><path class="u" d="M799,60v68H789V60h10m2-2H787v72h14V58Z" transform="translate(1 -48)"/><rect class="t" x="801" y="11" width="12" height="70"/><path class="u" d="M811,60v68H801V60h10m2-2H799v72h14V58Z" transform="translate(1 -48)"/><path class="w" d="M816,111s57-11,187-15,146,0,146,0l-6,7Z" transform="translate(1 -48)"/><path class="c" d="M821,68s175-2,324-7" transform="translate(1 -48)"/><path class="c" d="M821,119s175-2,324-7" transform="translate(1 -48)"/><path class="x" d="M821,114s175-2,324-7" transform="translate(1 -48)"/><path class="x" d="M821,71s175-2,324-7" transform="translate(1 -48)"/><path class="t" d="M812,129V59h9.21A2.79,2.79,0,0,1,824,61.79v64.43a2.79,2.79,0,0,1-2.79,2.79Z" transform="translate(1 -48)"/><path class="u" d="M821.21,60A1.79,1.79,0,0,1,823,61.79v64.43a1.79,1.79,0,0,1-1.79,1.79H813V60h8.21m0-2H811v72h10.21a3.79,3.79,0,0,0,3.79-3.79V61.79A3.79,3.79,0,0,0,821.21,58Z" transform="translate(1 -48)"/><text class="y" transform="translate(475.15 78.48)">5</text><text class="z" transform="translate(533.15 78.48)">0</text><text class="z" transform="translate(592.15 78.48)">0</text></svg>