<svg xmlns="http://www.w3.org/2000/svg" viewBox="0 0 477 319.41"><defs><style>.a{fill:#d1e7f8;}.b{fill:#add5f3;}.c{fill:#fff;}.d{fill:#4f5b77;}.e{fill:#e5f8ea;}.f{fill:#4f5b78;}.g{fill:#dedfe7;}</style></defs><title>empty</title><path class="a" d="M485.71,371.16H27.3a8,8,0,0,1-8-8L21,65.7a8,8,0,0,1,8-8l453.33-3.39a8,8,0,0,1,8,8l3.39,300.82A8,8,0,0,1,485.71,371.16Z" transform="translate(-18 -53.02)"/><path class="b" d="M19,152s70.6,2.26,79.64,0,0-29.94,0-29.94S80,119.24,71,133.93C65.87,125.46,22.94,123.2,19,152Z" transform="translate(-18 -53.02)"/><path class="b" d="M412.68,207.92s70.6,2.26,79.64,0a183.69,183.69,0,0,0,0-29.94s-18.64-2.82-27.68,11.86C459.56,181.37,416.63,179.12,412.68,207.92Z" transform="translate(-18 -53.02)"/><path class="b" d="M19.27,259.32s23.44-2.82,33,5.65c9.6-13.56,50.27-22.59,64.39-15.25s-2.82,121.44-2.82,121.44H27.3c-10,0-8-8-8-8Z" transform="translate(-18 -53.02)"/><path class="b" d="M394,232.21c12.43.56,39,16.38,51.4,21.46s42.32,3.91,47.14,7.32l1.15,102.14s-2.78,8-8,8H394Z" transform="translate(-18 -53.02)"/><path class="c" d="M112.19,371.16s2.26-80.77,2.26-131-1.13-150.81-1.13-150.81H352.24l46.88,48.12V371.16Z" transform="translate(-18 -53.02)"/><path class="d" d="M400.39,372.43H110.88l0-1.31c0-.81,2.26-81.33,2.26-131S112.06,90.33,112,89.32V88H352.77l47.62,48.88Zm-286.9-2.54H397.85V137.95L351.7,90.58H114.6c.13,11.9,1.12,102.91,1.12,149.54C115.72,286.35,113.78,359.25,113.49,369.89Z" transform="translate(-18 -53.02)"/><path class="d" d="M280.51,184.91a1.26,1.26,0,0,1-.45-.08c-4.65-1.74-35.53-4.83-51.72,0a1.27,1.27,0,1,1-.73-2.43c17-5.1,48.38-1.84,53.34,0a1.27,1.27,0,0,1-.45,2.46Z" transform="translate(-18 -53.02)"/><circle class="e" cx="164.44" cy="134.92" r="4.31"/><circle class="e" cx="181.81" cy="133.58" r="4.31"/><circle class="e" cx="175.17" cy="149.26" r="4.31"/><circle class="e" cx="293.64" cy="134.92" r="4.31"/><circle class="e" cx="310.87" cy="134.92" r="4.31"/><circle class="e" cx="300" cy="149.75" r="4.31"/><circle class="f" cx="302.95" cy="108.08" r="8.39"/><circle class="f" cx="174.59" cy="108.08" r="8.39"/><path class="g" d="M352.24,89.31s3.67,34.88,2.82,48c12.71,1.69,44.06.11,44.06.11Z" transform="translate(-18 -53.02)"/><path class="f" d="M373.09,139.38a155.14,155.14,0,0,1-18.2-.8,1.27,1.27,0,0,1-1.1-1.34c.83-12.88-2.78-47.45-2.82-47.8a1.27,1.27,0,0,1,2.17-1L400,136.54a1.27,1.27,0,0,1-.85,2.16C398.36,138.74,385.52,139.38,373.09,139.38Zm-16.7-3.18c10.7,1.17,32.15.41,39.84.09L353.87,92.8C354.75,101.78,356.87,124.94,356.4,136.2Z" transform="translate(-18 -53.02)"/><path class="d" d="M485.71,372.43H27.29A9.31,9.31,0,0,1,18,363.13L19.69,65.69A9.3,9.3,0,0,1,29,56.41L482.31,53a9.31,9.31,0,0,1,9.3,9.3L495,363.12A9.31,9.31,0,0,1,485.71,372.43ZM482.32,55.56,29,58.95a6.76,6.76,0,0,0-6.76,6.75L20.54,363.14a6.76,6.76,0,0,0,6.75,6.75H485.71a6.76,6.76,0,0,0,6.75-6.75L489.07,62.33A6.76,6.76,0,0,0,482.32,55.56Z" transform="translate(-18 -53.02)"/></svg>