<?xml version="1.0" encoding="utf-8"?>
<!-- Generator: Adobe Illustrator 21.0.1, SVG Export Plug-In . SVG Version: 6.00 Build 0)  -->
<svg version="1.1" id="Layer_1" xmlns="http://www.w3.org/2000/svg" xmlns:xlink="http://www.w3.org/1999/xlink" x="0px" y="0px"
	 viewBox="0 0 512 512" style="enable-background:new 0 0 512 512;" xml:space="preserve">
<circle style="fill:#438A95;" cx="256" cy="256" r="256"/>
<g>
	<path style="fill:#FFFFFF;" d="M91.5,262.7c-0.4,5.1-2,10-4.8,14.3c-2.7,4.2-6.2,7.8-10.3,10.7c-4.3,3-9.1,5.2-14.1,6.6
		c-5.3,1.5-10.7,2.3-16.2,2.3c-1.9,0-3.9-0.1-5.8-0.4c-1.6-0.2-3.2-0.6-4.8-1c-1.4-0.4-2.6-0.8-3.6-1.1c-0.7-0.2-1.4-0.5-2.1-0.9
		c-0.7-0.4-1.2-0.9-1.7-1.5c-0.5-0.8-0.8-1.7-0.8-2.6c-0.1-0.5-0.1-1-0.1-1.5c0-0.4,0-0.8,0.1-1.1c0.1-0.4,0.2-0.9,0.4-1.6
		c0.2-0.7,0.5-1.6,0.8-2.8c0.2-0.7,0.8-3,1.9-6.7c1.1-3.8,2.4-8.4,3.9-13.8c1.5-5.4,3.2-11.3,4.9-17.7c1.8-6.4,3.5-12.5,5.2-18.5
		c1.6-5.9,3.1-11.3,4.5-16.1c1.4-4.8,2.3-8.4,3-10.7c-1.1,0.8-2.2,1.6-3.3,2.5c-1.1,0.9-2.2,1.8-3.3,2.9c-1.2,1.1-2.4,1.5-3.5,1.1
		c-1.2-0.3-2-1.3-2.4-2.9c-0.2-0.8-0.3-1.7-0.4-2.5c-0.1-0.8-0.1-1.6,0.1-2.4c0.1-0.9,0.4-1.9,0.9-2.7c2.5-1.5,5-2.9,7.7-4.1
		c2.5-1.1,4.9-2.1,7.2-3c0.4-1.1,0.9-2.2,1.6-3.1c0.5-0.6,1.1-1.1,1.9-1.4c0.6-0.2,1.3-0.3,2-0.2c0.7,0.1,1.5,0.2,2.3,0.4
		c1.7,0.4,2.9,1,3.5,1.7c1.1-0.2,2.2-0.3,3.2-0.4c1-0.1,2.1-0.1,3.2-0.1c4.1-0.1,8.2,0.5,12,1.8c3.1,1,6,2.7,8.4,4.8
		c2.1,1.9,3.7,4.4,4.7,7.1c1,2.7,1.3,5.7,1.1,8.6c-0.3,2.8-1,5.6-2.1,8.2c-1.2,2.9-2.8,5.7-4.6,8.3c-2,2.8-4.2,5.5-6.7,8
		c-2.6,2.6-5.4,5-8.5,7.1c2.4,1.4,4.6,3.1,6.6,5c1.9,1.9,3.5,3.9,4.8,6.2c1.2,2.1,2.1,4.4,2.7,6.8C91.4,258.2,91.6,260.4,91.5,262.7
		z M50,241.3c-1.1,4.3-2.2,8.9-3.3,13.9c-1,4.3-2.1,9.3-3.3,15l-3.8,18.2c0.6,0.4,1.2,0.7,1.9,0.8l2.4,0.5c0.9,0.2,1.9,0.2,2.9,0.2
		c3.7,0,7.4-0.8,10.9-2.2c7.7-3.1,14.1-8.8,18-16.1c2.1-4,3.4-8.4,3.8-12.9c0.2-1.9,0-3.9-0.4-5.8c-0.4-1.6-1-3.2-1.9-4.7
		c-0.8-1.3-1.8-2.6-2.9-3.7c-1-1-2.2-2-3.4-2.8c-3.8,2.1-7.9,3.7-12,5c-1.2,0.4-2.5,0.5-3.7,0.2c-1-0.2-1.9-0.7-2.6-1.3
		c-0.7-0.6-1.3-1.3-1.7-2.1C50.4,242.9,50.1,242.1,50,241.3z M52,233.4c-0.2,0.8-0.3,1.6-0.5,2.4c-0.2,0.8-0.4,1.6-0.7,2.5
		c1.4-1.3,3-2.3,4.8-2.9c2.1-0.8,4.3-1.2,6.5-1.3c1.1,0,2.2,0.1,3.2,0.2c1,0.1,2,0.3,3,0.4c2.4-1.6,4.5-3.4,6.4-5.5
		c2.1-2.2,3.9-4.7,5.4-7.3c1.5-2.5,2.8-5.2,3.8-7.9c0.9-2.4,1.5-4.9,1.9-7.5c0.5-5.5-0.5-9.6-2.8-12.2c-2.3-2.7-5.7-4-9.9-4
		c-3,0-6.1,0.6-8.9,1.6c-0.6,2.1-1.4,4.6-2.4,7.7c-0.9,3.1-2,6.4-3.1,10.1l-3.4,11.6C54.2,225.2,53.1,229.3,52,233.4z"/>
	<path style="fill:#FFFFFF;" d="M134,273.6c-0.4,2.5-0.8,4.8-1.1,7c-0.4,2.2-0.6,4-0.7,5.4c-0.1,2,0.3,3.4,1.1,4.3
		c0.6,0.8,1.6,1.3,2.6,1.3c1.1,0,2.5-0.6,4.1-1.7c1.8-1.3,3.6-2.7,5.2-4.2c1.8-1.7,3.6-3.5,5.4-5.4c1.8-2,3.5-3.8,5.1-5.7
		c1.6-1.8,2.9-3.4,3.9-4.7c1.1-1.3,1.8-2.2,2.2-2.6c0.4-0.4,0.9-0.7,1.5-0.8c0.4-0.1,0.9,0,1.3,0.2c0.4,0.3,0.5,0.8,0.5,1.3
		c-0.1,0.9-0.4,1.7-1,2.4c-1,1.5-2.2,3.3-3.7,5.3c-1.5,2-3.2,4.1-5,6.2c-1.8,2.1-3.8,4.3-5.8,6.3c-1.9,1.9-3.9,3.8-6.1,5.4
		c-1.8,1.5-3.8,2.8-5.8,3.9c-1.5,0.9-3.3,1.4-5.1,1.5c-1.1,0-2.2-0.3-3.2-1c-1-0.7-1.9-1.5-2.7-2.5c-0.8-1-1.4-2.2-1.8-3.5
		c-0.4-1.2-0.6-2.5-0.5-3.8c0.1-0.6,0.2-1.5,0.4-2.9c-3,3.4-6.4,6.4-10.1,8.9c-3.4,2.2-6.6,3.3-9.7,3.3c-1.2,0-2.5-0.3-3.6-0.8
		c-1.3-0.6-2.5-1.6-3.4-2.7c-1.1-1.5-1.9-3.2-2.4-5c-0.7-2.4-0.9-5-0.7-7.5c0.2-4.5,1.1-8.9,2.7-13.1c1.4-3.9,3.5-7.5,6-10.8
		c2.3-2.9,5.1-5.4,8.2-7.3c2.8-1.7,6-2.6,9.2-2.7c1.3,0,2.6,0.3,3.7,1c1.1,0.7,2.1,1.6,2.9,2.6c0.8,1.1,1.5,2.3,2,3.5
		c0.5,1.2,0.9,2.4,1.1,3.6c0.6-2.3,1.1-4.6,1.6-6.8c0.5-2.2,1-4.3,1.4-6.3c0.8-2.9,1.6-6.1,2.5-9.5l2.7-10.1c1-3.8,2.2-7.8,3.5-12
		c0.7-0.6,1.5-1.1,2.3-1.4c0.7-0.3,1.3-0.5,2-0.7c0.7-0.2,1.3-0.3,2-0.4c0.7,0,1.5,0.1,2.1,0.3c0.7,0.3,1.3,0.8,1.6,1.6
		c0.5,1.2,0.8,2.5,0.9,3.8c0.2,2.3,0.2,4.5,0,6.8c-0.2,3.9-0.8,7.7-1.9,11.4c-1.1,4.4-2.6,8.6-4.2,12.8c-1.7,4.4-3.8,8.8-6,13.2
		C139,265.3,136.6,269.5,134,273.6z M127,275.1c0.3-1.5,0.6-3,0.9-4.5c0.3-1.5,0.6-3.1,1-4.7c-0.1,0.1-0.3,0.2-0.4,0.2
		c-0.1,0.1-0.3,0.2-0.4,0.2c-0.9,0.4-1.5,0.4-1.8-0.1c-0.4-0.6-0.5-1.4-0.5-2.1c0-0.5,0-1.3-0.1-2.6c-0.1-1.3-0.3-2.6-0.7-3.8
		c-0.3-1.2-0.9-2.4-1.6-3.5c-0.7-1-1.8-1.5-3-1.5c-1.8,0-3.7,0.9-5.6,2.8c-2,2-3.9,4.3-5.4,6.8c-1.7,2.7-3.1,5.6-4.2,8.6
		c-1,2.6-1.7,5.3-1.9,8.1c-0.2,3.8,0.3,6.6,1.4,8.2c1,1.6,2.7,2.5,4.5,2.5c1.7-0.1,3.3-0.7,4.7-1.7c1.8-1.2,3.5-2.5,5-4.1
		c1.6-1.5,3.1-3.2,4.5-4.9C124.9,277.6,126.1,276.2,127,275.1L127,275.1z"/>
	<path style="fill:#FFFFFF;" d="M163.2,279.8c-1-0.9-1.8-2.1-2.4-3.3c-0.4-1-0.8-2.1-1-3.1c-0.2-1.1-0.2-2.3,0-3.4
		c0.4-1.4,1-2.8,1.8-4c0.8-1.3,1.8-2.4,2.9-3.5c1.5-1.3,3.1-2.4,4.9-3.3c1.3-3.3,2.5-6.7,3.6-10.3c1.1-3.6,2-6.9,2.8-9.9
		c0.9-3.5,1.7-6.9,2.5-10.4c2.6-8.7,3.9-15.7,4-21.2c0.2-3.6,0.1-7.2-0.3-10.8c-0.1-0.7-0.2-1.4-0.3-2.2c-0.2-0.7-0.4-1.4-0.5-2.1
		c-0.2-0.8-0.3-1.5-0.5-2.2c1.1-0.6,2.1-1.1,3-1.5c0.7-0.3,1.5-0.7,2.2-0.9c0.6-0.3,1.3-0.5,2-0.6c2.2-0.5,4.4-0.8,6.7-0.8
		c2.1-0.1,3.2,0.3,3.5,1.2c0.1,0.5,0.2,1.4,0.4,2.8c0.2,1.6,0.2,3.3,0.2,4.9c0,2.2-0.2,4.4-0.5,6.5c-0.3,2.6-0.9,5.1-1.7,7.6
		c-0.7,2.4-1.7,5.6-2.9,9.8c-1.1,3.6-2.6,8.4-4.4,14.3c-1.8,6-4.2,13.6-7.2,22.9c3.1-1,6.4-2,10.1-2.9c3.7-0.9,7.4-1.7,11.3-2.3
		c3.8-0.6,7.7-1.1,11.5-1.4c3.5-0.3,7.1-0.4,10.7-0.2c0.6,0,1.1,0.3,1.3,0.8c0.3,0.6,0.3,1.2,0,1.8c-0.4,0.7-1,1.4-1.7,1.8
		c-1.1,0.6-2.4,1-3.8,1l-6.7,0.7c-2.5,0.3-5,0.6-7.6,1.1s-5.2,1-7.7,1.7c-2.5,0.6-4.9,1.4-7.2,2.4l-5.2,1.8
		c-1.4,0.5-2.9,1.1-4.5,1.8s-2.9,1.2-3.9,1.8l-3.5,11.2c5.2,3.5,9.9,7.9,13.7,12.9c2.8,3.7,5.2,7.8,7,12.1c1.7,4,2.7,8.2,2.9,12.5
		c0,4.6-0.7,9.2-2,13.6c-1.3,4.5-3.1,8.9-5.3,13c-2.2,4.1-4.7,8-7.7,11.6c-2.7,3.4-5.8,6.5-9.2,9.2c-3,2.4-6.3,4.4-9.8,5.8
		c-3,1.3-6.2,1.8-9.4,1.5c-2-0.1-3.8-0.9-5.4-2.1c-1.4-1.2-2.5-2.7-3.2-4.4c-0.7-1.9-1.2-3.9-1.2-6c-0.1-2.2,0.1-4.4,0.6-6.5
		c0.4-2.1,1.3-6.1,2.6-12c1.1-4.9,2.9-12,5.2-21.4C156,307.7,159.2,295.3,163.2,279.8z M172.2,287c-1.4,5.1-2.7,9.8-3.8,14.1
		s-2,8.1-2.7,11.3c-0.9,3.8-1.6,7.2-2.2,10.3c-0.9,3.9-1.9,7.7-2.8,11.5s-1.7,7.2-2.3,10.2c-0.5,2.4-0.7,4.8-0.7,7.3
		c0.1,1.8,0.8,2.8,2,2.8c3,0.2,6-1,9.3-3.5c3.4-2.7,6.4-5.9,8.8-9.5c2.7-3.9,4.9-8,6.6-12.4c1.7-3.9,2.6-8.1,2.7-12.3
		c0-4.2-0.7-8.4-2-12.4c-0.9-2.2-2-4.3-3.2-6.3c-1.1-1.7-2.5-3.6-4.1-5.6C176.2,290.4,174.3,288.6,172.2,287L172.2,287z"/>
	<path style="fill:#FFFFFF;" d="M283.7,213.2c-1.4-1.4-2.9-2.6-4.5-3.7c-2.2-1.4-4.6-2.7-7-3.7c-2.8-1.2-5.8-2.1-8.8-2.8
		c-3.2-0.7-6.5-1.1-9.8-1.1c-7.4,0-12.9,1.4-16.4,4.1c-3.5,2.7-5.5,6.9-5.3,11.3c-0.1,2.3,0.5,4.7,1.7,6.7c1.3,1.9,3.1,3.5,5.1,4.6
		c2.7,1.5,5.6,2.6,8.6,3.4c3.5,1,7.5,2.1,12.1,3.2c5.2,1.2,10.3,2.7,15.3,4.6c4.1,1.4,8,3.5,11.5,6.1c3.1,2.3,5.6,5.4,7.3,8.9
		c1.8,4,2.7,8.4,2.6,12.8c0.1,5.1-1,10.1-3.2,14.6c-2.1,4-5.1,7.4-8.8,10c-3.9,2.6-8.3,4.5-12.9,5.6c-5.2,1.2-10.5,1.8-15.8,1.8
		c-8.3,0-16.6-1.3-24.6-3.8c-7.7-2.5-15-6.3-21.4-11.2l8-15.1c1.8,1.7,3.8,3.2,5.9,4.6c2.8,1.8,5.8,3.4,8.9,4.6
		c3.6,1.5,7.3,2.7,11.1,3.6c4.1,1,8.2,1.5,12.4,1.5c6.9,0,12.2-1.2,16-3.6c3.7-2.2,5.8-6.3,5.7-10.6c0.1-2.5-0.7-5-2.1-7.1
		c-1.6-2.1-3.7-3.7-6-4.9c-3.1-1.6-6.3-2.9-9.6-3.8c-3.8-1.2-8.1-2.4-12.9-3.6c-4.9-1.3-9.8-2.8-14.5-4.7c-3.7-1.4-7.2-3.4-10.3-5.9
		c-2.6-2.2-4.8-5-6.2-8.1c-1.5-3.5-2.2-7.4-2.1-11.2c-0.1-5,1-10,3.1-14.5c2-4.1,4.9-7.8,8.5-10.7c3.8-3,8.1-5.2,12.8-6.5
		c5.2-1.5,10.6-2.2,16-2.2c7.1-0.1,14.2,1.2,20.9,3.6c6,2.2,11.6,5.2,16.8,8.9L283.7,213.2z"/>
	<path style="fill:#FFFFFF;" d="M389.3,283.1v15.5h-76.4V187.2h75v15.5h-57.4v31.7h49.8V249h-49.8v34.1H389.3z"/>
	<path style="fill:#FFFFFF;" d="M407.5,298.6V187.2h17.6v95.9h59.8v15.5H407.5z"/>
</g>
</svg>
