<svg id="Layer_1" data-name="Layer 1" xmlns="http://www.w3.org/2000/svg" viewBox="0 0 1364.65 191.2"><defs><style>.cls-1{fill:#fff;}</style></defs><title>logo_white</title><path class="cls-1" d="M82.76,103a40.15,40.15,0,0,1-6.13,18.41,48.46,48.46,0,0,1-13.26,13.7,61.26,61.26,0,0,1-18.19,8.51,75,75,0,0,1-20.84,2.91,48.56,48.56,0,0,1-7.43-.54,55.41,55.41,0,0,1-6.21-1.3q-2.76-.77-4.67-1.46a16.86,16.86,0,0,1-2.68-1.15,6.79,6.79,0,0,1-2.17-1.91,6.31,6.31,0,0,1-1-3.29A16.85,16.85,0,0,1,0,135a7.55,7.55,0,0,1,.15-1.46q0.15-.77.54-2.07t1-3.6Q2,126.47,4.1,119.19t5-17.78Q12,90.91,15.46,78.65T22.13,54.9q3.16-11.47,5.77-20.76t3.83-13.71Q29.58,22,27.52,23.65t-4.21,3.68q-2.31,2.1-4.53,1.44T15.64,25a29.49,29.49,0,0,1-.46-3.21,13.16,13.16,0,0,1,.08-3.14,9.83,9.83,0,0,1,1.15-3.45A88.86,88.86,0,0,1,26.29,10q4.83-2.14,9.27-3.83a13,13,0,0,1,2.07-4A5.88,5.88,0,0,1,40,.33,5.59,5.59,0,0,1,42.61,0Q44,0.17,45.52.48,48.89,1.25,50,2.63q2.14-.3,4.14-0.46T58.24,2a47,47,0,0,1,15.48,2.3,30.39,30.39,0,0,1,10.8,6.21,22.54,22.54,0,0,1,6.05,9.12,26.52,26.52,0,0,1,1.38,11,36.59,36.59,0,0,1-2.68,10.5,55.68,55.68,0,0,1-5.9,10.73,78.81,78.81,0,0,1-8.58,10.27,75.68,75.68,0,0,1-10.88,9.12,40.9,40.9,0,0,1,8.43,6.44,37.83,37.83,0,0,1,6.13,8A33.46,33.46,0,0,1,82,94.43,27.8,27.8,0,0,1,82.76,103ZM29.43,75.59q-2.15,8.28-4.25,17.93-2,8.27-4.29,19.23L16,136.12a5.46,5.46,0,0,0,2.45,1.07l3.06,0.61a20.7,20.7,0,0,0,3.68.31,37.76,37.76,0,0,0,14-2.84,45.37,45.37,0,0,0,23.14-20.69,41.49,41.49,0,0,0,4.83-16.63,23.17,23.17,0,0,0-.54-7.43,22.33,22.33,0,0,0-2.45-6,24.59,24.59,0,0,0-3.68-4.75,28.73,28.73,0,0,0-4.37-3.6,84.72,84.72,0,0,1-15.48,6.44,9,9,0,0,1-4.75.23,8.72,8.72,0,0,1-3.37-1.69,8.29,8.29,0,0,1-2.15-2.68A8.63,8.63,0,0,1,29.43,75.59ZM32,65.43Q31.72,67,31.34,68.5T30.5,71.72A16.68,16.68,0,0,1,36.71,68a23.19,23.19,0,0,1,8.35-1.61,36.09,36.09,0,0,1,4.14.23q2,0.23,3.83.54a42.25,42.25,0,0,0,8.28-7.13,58.48,58.48,0,0,0,7-9.35A60.17,60.17,0,0,0,73.18,40.5a40.21,40.21,0,0,0,2.38-9.66Q76.48,20.27,72,15.13T59.18,10a36.34,36.34,0,0,0-11.49,2q-1.23,4-3.06,9.89T40.69,34.83L36.32,49.69Q34,57.51,32,65.43Z" transform="translate(-0.03 0.02)"/><path class="cls-1" d="M141.46,93.06a53.35,53.35,0,0,1-4.14,10.88,35.91,35.91,0,0,1-6.21,8.74,27.08,27.08,0,0,1-8.12,5.75,23.48,23.48,0,0,1-9.88,2.07q-6.29,0-9.88-2.68a16.51,16.51,0,0,1-5.36-6.67,26.75,26.75,0,0,1-2.15-8.74q-0.38-4.75-.38-8.89A33.77,33.77,0,0,1,96,87.08,57.82,57.82,0,0,1,98,79.88a50.28,50.28,0,0,1,3.14-7.36,36.08,36.08,0,0,1,4.52-6.74,12.62,12.62,0,0,1,2.84-4.6,16.81,16.81,0,0,1,4.44-3.29,23.91,23.91,0,0,1,5.44-2A24.54,24.54,0,0,1,124,55.2a2.28,2.28,0,0,1,.84.15c0.25,0.1.54,0.21,0.84,0.31a15.35,15.35,0,0,1,5,1.53,21.18,21.18,0,0,1,5.82,4.14,23,23,0,0,1,6.82,17.17q0,1.23-.15,3t-0.31,3a76.21,76.21,0,0,0,7.36-3.37q3.83-2,7.43-4.21t6.67-4.52a46.48,46.48,0,0,0,4.9-4.14,5.49,5.49,0,0,1,2.61-1.53,1.39,1.39,0,0,1,1.53.61,2.92,2.92,0,0,1,.15,2.15,7.74,7.74,0,0,1-1.69,3.06,46.7,46.7,0,0,1-3.91,3.68q-3.14,2.76-7.43,6a94.32,94.32,0,0,1-9.37,6.2A48.09,48.09,0,0,1,141.46,93.06Zm-35.71,3.68a47.46,47.46,0,0,0,.31,5.44,16.14,16.14,0,0,0,1.23,4.75,9.27,9.27,0,0,0,2.45,3.37,5.93,5.93,0,0,0,4,1.3,10.07,10.07,0,0,0,5.06-1.3,16.18,16.18,0,0,0,4.14-3.37,25.26,25.26,0,0,0,3.29-4.75,42.6,42.6,0,0,0,2.53-5.59q-1.07.16-2.07,0.23c-0.67.05-1.41,0.08-2.22,0.08a15.35,15.35,0,0,1-10-3.45A22.71,22.71,0,0,1,108,84.64q-0.92,3.22-1.53,6.28A29.66,29.66,0,0,0,105.75,96.74Zm9.81-27a9.17,9.17,0,0,0-.46,2.91,44.83,44.83,0,0,0,.31,5.13,12.42,12.42,0,0,0,1.53,4.83,9.59,9.59,0,0,0,3.91,3.6,15.71,15.71,0,0,0,7.43,1.46,15,15,0,0,0,1.53-.08q0.76-.08,1.53-0.23,0.46-2,.84-3.6a12.52,12.52,0,0,0,.38-2.84,29.31,29.31,0,0,0,0-6,26,26,0,0,0-1.15-5.59,13.17,13.17,0,0,0-2.15-4.14,3.92,3.92,0,0,0-3.14-1.61,10.71,10.71,0,0,0-5.59,1.61,18.66,18.66,0,0,0-5,4.58v0Z" transform="translate(-0.03 0.02)"/><path class="cls-1" d="M176.86,119.88a21.27,21.27,0,0,1-9.5-1.84,15.82,15.82,0,0,1-8.66-10.34,22.29,22.29,0,0,1-.84-5.75,65.86,65.86,0,0,1,.77-9.73q0.77-5.13,1.84-9.5t1.92-7.43q0.84-3.06,1.15-3.83a29.28,29.28,0,0,1,3.6-7.74,11.22,11.22,0,0,1,6.21-4.52l3.22-.61a26,26,0,0,1,2.84-.15,7.61,7.61,0,0,1,2.68.46q-4.14,10.57-6.51,17.62T172,88a52.42,52.42,0,0,0-1.69,8.12q-0.77,6.9,1.23,10.42t8.12,3.52a12,12,0,0,0,7.66-3A32.67,32.67,0,0,0,194,99.33a27.39,27.39,0,0,1-.46-5.06,53.84,53.84,0,0,1,.84-9.58q0.84-4.67,2-8.74a71.11,71.11,0,0,1,2.45-7.28q1.3-3.22,2.22-5.06,1.68-3.68,3.06-4.52a9.84,9.84,0,0,1,4.44-1,9.14,9.14,0,0,1,3.52.15q1.84,0.46,1.84,1.84,0,2.45-.31,7.36a46.15,46.15,0,0,1-1.84,10.11q-1.07,4.29-2.07,7.28t-1.92,5.06A19.91,19.91,0,0,1,206,93.26l-1.69,2.38q0.31,4.6.77,7.36a16.66,16.66,0,0,0,1.15,4.21,4.16,4.16,0,0,0,1.69,2,4.58,4.58,0,0,0,2.22.54,9.23,9.23,0,0,0,5.06-2.07,48.06,48.06,0,0,0,6.05-5.21q3.14-3.14,6.28-6.9t5.75-7.13q2.6-3.37,4.44-5.9L240,79.4a4.56,4.56,0,0,1,2.07-1.69,1.59,1.59,0,0,1,1.61.23,2.37,2.37,0,0,1,.69,1.69,4.64,4.64,0,0,1-.69,2.53,119.55,119.55,0,0,1-7.59,12.34,108.17,108.17,0,0,1-9.66,12,67.45,67.45,0,0,1-10.34,9.2q-5.2,3.73-9.8,3.73a8,8,0,0,1-6.51-2.83,23.94,23.94,0,0,1-4.06-8.2,27,27,0,0,1-8.28,8.51A19.46,19.46,0,0,1,176.86,119.88Z" transform="translate(-0.03 0.02)"/><path class="cls-1" d="M288,78.66a2.59,2.59,0,0,1,1.61-1.15,1.88,1.88,0,0,1,1.61.23,2,2,0,0,1,.69,1.53,6.11,6.11,0,0,1-.84,2.91,99.56,99.56,0,0,1-8,12.57,141.69,141.69,0,0,1-10.55,12.68,78.93,78.93,0,0,1-10.73,9.73Q256.55,121,253,121a16.35,16.35,0,0,1-8.43-2,15.81,15.81,0,0,1-5.29-4.9,18.9,18.9,0,0,1-2.68-6.36,19.71,19.71,0,0,1-.46-6.36q0.15-2.45,1.07-8.81t2.45-14.71q1.5-8.42,3.5-18t4-18.45L242,42a40.6,40.6,0,0,1-4.75.31,36.28,36.28,0,0,1-9.27-1.15A35.87,35.87,0,0,1,221.44,39a1.64,1.64,0,0,1-1.07-1.76,5.47,5.47,0,0,1,.92-2.3,7.94,7.94,0,0,1,1.92-2,3.65,3.65,0,0,1,2.07-.84q2.91,0.31,6.28.54a69,69,0,0,0,7.36.08q2.91-.15,5.59-0.46t5.29-.77q2-7.36,3.91-12.8a33.13,33.13,0,0,1,3.47-7.6,3.71,3.71,0,0,1,2.07-1.3A18,18,0,0,1,262.7,9a13.56,13.56,0,0,1,3.52,0,3.71,3.71,0,0,1,2.45,1.15q0.77,1.23.61,6.28a82.81,82.81,0,0,1-1.69,12.87A84,84,0,0,1,279,30q5,0.69,8.51,1.53a44.43,44.43,0,0,1,5.66,1.7q2.14,0.85,3.22,1.15a1.53,1.53,0,0,1,1.15,1.53,5.68,5.68,0,0,1-.47,2.53,5.28,5.28,0,0,1-1.76,2.22,3.32,3.32,0,0,1-2.76.61,25.89,25.89,0,0,1-3.45-.61,39.43,39.43,0,0,0-4.6-.77q-2.68-.3-6.36-0.61T269.57,39q-0.92,0-2.07.08c-0.77.05-1.56,0.08-2.37,0.08Q264.52,41.57,264,44a44.7,44.7,0,0,1-1.46,5q-2,6.13-4.6,13.33-2.3,6.29-5.52,14.41T245.18,94q-0.92,6.59.23,10a11.6,11.6,0,0,0,2.84,5,8,8,0,0,0,4.9,1.84q2.3,0.31,5.59-1.61a40.42,40.42,0,0,0,6.82-5.13q3.52-3.22,7.13-7t6.67-7.51q3.06-3.68,5.36-6.67Z" transform="translate(-0.03 0.02)"/><path class="cls-1" d="M300.38,112.22a4.19,4.19,0,0,0,2.38.61,7.43,7.43,0,0,0,2.91-.61,11.09,11.09,0,0,0,2.76-1.69,6.27,6.27,0,0,0,1.92-2.76,9.49,9.49,0,0,0,0-4.83,46,46,0,0,0-1.92-6.74q-1.3-3.6-2.83-7.28T303,82.18q-0.92-2.3-1.53-4.29-0.61-1.68-1.15-3.29a20.09,20.09,0,0,0-.84-2.22q-0.77,1.23-2.68,4t-4.14,5.75q-2.22,3-4.21,5.52t-2.76,3.45a4.59,4.59,0,0,1-2.38,1.61,2.09,2.09,0,0,1-1.92-.46,2.76,2.76,0,0,1-.84-2,5.39,5.39,0,0,1,1.15-3.14q0.92-1.22,2.76-3.91t3.68-5.52q1.84-2.83,3.37-5.06a19.35,19.35,0,0,0,1.69-2.68,4.6,4.6,0,0,0-.84-3.22,5.66,5.66,0,0,1-.38-4.6,16,16,0,0,1,2.76-5A28.25,28.25,0,0,1,299.79,52a22.25,22.25,0,0,1,6-3.45,6.67,6.67,0,0,1,5.52.08,13.32,13.32,0,0,1,3.22,2.68,3.47,3.47,0,0,1,.92,3q-0.31.77-.92,2a25.3,25.3,0,0,1-1.84,3q-1.23,1.76-3.52,4.52a43.16,43.16,0,0,0,1.3,6.44q0.84,2.91,1.61,5.06a41.26,41.26,0,0,0,2,4.75q1.38,2.76,2.91,5.67t2.76,5.75a54.93,54.93,0,0,1,2,5.29,8.88,8.88,0,0,1,.46,4.14,19.33,19.33,0,0,1-2.68,6.28,41.22,41.22,0,0,1-5.52,7.13,34,34,0,0,1-7.51,5.9,17.3,17.3,0,0,1-8.81,2.45,11,11,0,0,1-6.21-2,21.79,21.79,0,0,1-8.12-10q-1-2.6-.23-4a22.12,22.12,0,0,1,1.69-2.91,16,16,0,0,1,2.3-2.45c0.41-.31.92-0.66,1.53-1.07a11.13,11.13,0,0,1,2.15-.92L294,98.26a70.55,70.55,0,0,0,2.76,7.43q1.22,2.68,2,4.21A7.72,7.72,0,0,0,300.38,112.22Z" transform="translate(-0.03 0.02)"/><path class="cls-1" d="M426.66,88.16l-1.46,9q-0.69,4.25-.84,6.9-0.15,3.83,1.38,5.52a4.5,4.5,0,0,0,3.37,1.69q2.14,0,5.29-2.15a61.59,61.59,0,0,0,6.67-5.36q3.52-3.22,7-7t6.51-7.28q3-3.45,5.06-6.05t2.84-3.37A3.49,3.49,0,0,1,464.4,79a2.07,2.07,0,0,1,1.61.31,2,2,0,0,1,.61,1.69,6,6,0,0,1-1.23,3.07q-1.84,2.91-4.75,6.82t-6.44,8q-3.53,4.14-7.43,8.12a81,81,0,0,1-7.82,7,51.61,51.61,0,0,1-7.51,5,14.14,14.14,0,0,1-6.51,1.92,7.41,7.41,0,0,1-4.06-1.23,13.64,13.64,0,0,1-3.45-3.22A15.39,15.39,0,0,1,415,112a12.51,12.51,0,0,1-.69-4.9q0.15-1.07.46-3.68a65.06,65.06,0,0,1-13,11.42q-6.52,4.21-12.49,4.21a11.54,11.54,0,0,1-4.6-1.07,11.3,11.3,0,0,1-4.37-3.53,19.81,19.81,0,0,1-3.14-6.44,28,28,0,0,1-.92-9.65,54.54,54.54,0,0,1,3.52-16.86,52.49,52.49,0,0,1,7.74-13.87,37.91,37.91,0,0,1,10.57-9.35A23.33,23.33,0,0,1,410,54.86a9,9,0,0,1,4.75,1.3,12.86,12.86,0,0,1,3.68,3.37A20.7,20.7,0,0,1,421,64.05a27.87,27.87,0,0,1,1.46,4.6q1.07-4.44,2-8.74t1.84-8.12q1.53-5.67,3.22-12.26l3.52-13q2-7.36,4.44-15.48a13.61,13.61,0,0,1,2.91-1.84,16.33,16.33,0,0,1,2.6-.92,8.25,8.25,0,0,1,2.61-.46,9.31,9.31,0,0,1,2.76.38,3.71,3.71,0,0,1,2.07,2A13.67,13.67,0,0,1,451.55,15a61.61,61.61,0,0,1,0,8.74,72,72,0,0,1-2.38,14.71A141.17,141.17,0,0,1,443.73,55q-3.37,8.5-7.74,17A171.74,171.74,0,0,1,426.66,88.16Zm-9,2q0.61-2.91,1.15-5.82t1.3-6a5.14,5.14,0,0,0-.54.31A4.62,4.62,0,0,1,419,79q-1.69.77-2.3-.08a4.61,4.61,0,0,1-.61-2.68q0-.92-0.15-3.29a24.77,24.77,0,0,0-.84-4.9,13.71,13.71,0,0,0-2.07-4.44,4.46,4.46,0,0,0-3.83-1.92q-3.53,0-7.2,3.6a47.4,47.4,0,0,0-6.9,8.74,58.89,58.89,0,0,0-5.36,11,37.86,37.86,0,0,0-2.45,10.42Q387,102.77,389.16,106A6.66,6.66,0,0,0,395,109.2a11.32,11.32,0,0,0,6-2.15,42.29,42.29,0,0,0,6.44-5.21,83.49,83.49,0,0,0,5.82-6.28q2.64-3.26,4.33-5.41h0Z" transform="translate(-0.03 0.02)"/><path class="cls-1" d="M523.18,85.55a116.91,116.91,0,0,1-10.42,13.1A94.91,94.91,0,0,1,500.42,110a67.64,67.64,0,0,1-13.33,8,32.26,32.26,0,0,1-13.26,3.06,19.22,19.22,0,0,1-7.28-1.61,20.75,20.75,0,0,1-7.13-5,24.22,24.22,0,0,1-5.13-8.74,30,30,0,0,1-1.15-13,40.34,40.34,0,0,1,3.91-13.26,60.39,60.39,0,0,1,8.12-12.8A46.22,46.22,0,0,1,476.05,57a22.61,22.61,0,0,1,12.18-3.83q5.82,0,8.43,2.91a9.35,9.35,0,0,1,2.3,7.2A22.11,22.11,0,0,1,496.28,72,35.38,35.38,0,0,1,491,79.2,53.74,53.74,0,0,1,484.48,85Q481,87.63,478,89.77l-6.44,4.37q-3.07,2.07-5.36,3.75a16.6,16.6,0,0,0,1.41,6.54,12.63,12.63,0,0,0,3.06,4.21,10.94,10.94,0,0,0,4.21,2.3,17.22,17.22,0,0,0,4.83.69,21.69,21.69,0,0,0,10.88-3.29,74.57,74.57,0,0,0,11.11-8,122.35,122.35,0,0,0,10.11-9.73q4.67-5.06,7.74-8.74a4.11,4.11,0,0,1,2.22-1.46,1.91,1.91,0,0,1,2.53,2.15A5.77,5.77,0,0,1,523.18,85.55ZM483.95,62a7.9,7.9,0,0,0-4.37,1.84,22.75,22.75,0,0,0-5,5.29,45.9,45.9,0,0,0-4.6,8.43,49.25,49.25,0,0,0-3.22,11.42q1.84-1.38,4-2.83T475,83q6.59-5.06,9.2-8.89a15.52,15.52,0,0,0,2.93-6.64q0.31-2.91-.61-4.21A3,3,0,0,0,484,62h0Z" transform="translate(-0.03 0.02)"/><path class="cls-1" d="M559.18,101.49a10.8,10.8,0,0,1-2.38-3.29,16,16,0,0,1-1-3.14,9.38,9.38,0,0,1,0-3.37,14.07,14.07,0,0,1,1.84-4,19,19,0,0,1,2.91-3.45,20,20,0,0,1,4.9-3.29A108,108,0,0,0,569,70.61q1.6-5.44,2.84-9.88,1.38-5.21,2.45-10.42,3.83-13,4-21.22a71,71,0,0,0-.31-10.8q-0.15-1.07-.31-2.15a17,17,0,0,1-.54-2.07q-0.23-1.15-.54-2.22,1.68-.92,3-1.53a21.58,21.58,0,0,1,2.22-.92,8.8,8.8,0,0,1,2-.61A35.7,35.7,0,0,1,590.53,8q3.14-.08,3.45,1.15,0.15,0.77.38,2.76a44,44,0,0,1,.23,4.9,51.91,51.91,0,0,1-.46,6.51,45.47,45.47,0,0,1-1.69,7.59q-1.07,3.53-2.91,9.81Q587.84,46,585.09,55t-7.2,22.91Q582.49,76.38,588,75t11.26-2.3q5.75-.92,11.49-1.38a75.22,75.22,0,0,1,10.65-.15,1.33,1.33,0,0,1,1.3.84,2.13,2.13,0,0,1,0,1.76A4.18,4.18,0,0,1,621,75.53a7.83,7.83,0,0,1-3.75,1l-6.74.69q-3.68.38-7.59,1.07T595.19,80a56.78,56.78,0,0,0-7.2,2.38l-5.21,1.84q-2.15.77-4.52,1.76t-3.91,1.76l-3.52,11.19a59.09,59.09,0,0,1,13.72,12.87,54.52,54.52,0,0,1,7,12.11,38.61,38.61,0,0,1,2.92,12.54,48.24,48.24,0,0,1-2,13.56,69,69,0,0,1-5.29,13,71.16,71.16,0,0,1-7.66,11.57,60.19,60.19,0,0,1-9.2,9.2,39.43,39.43,0,0,1-9.81,5.82,19.79,19.79,0,0,1-9.42,1.53,9.7,9.7,0,0,1-5.36-2.07,10.9,10.9,0,0,1-3.22-4.44,18.36,18.36,0,0,1-1.23-6,23.39,23.39,0,0,1,.61-6.51q0.61-3.22,2.6-12,1.69-7.36,5.21-21.38T559.18,101.49Zm9,7.2q-2.15,7.67-3.75,14.1t-2.68,11.34q-1.38,5.67-2.15,10.27-1.38,5.82-2.84,11.49t-2.3,10.19a32.16,32.16,0,0,0-.69,7.28q0.15,2.76,2,2.76,4.44,0.3,9.27-3.45a42.85,42.85,0,0,0,8.81-9.5,60.18,60.18,0,0,0,6.59-12.41,34.11,34.11,0,0,0,2.74-12.33,40,40,0,0,0-2-12.41,52,52,0,0,0-3.22-6.28q-1.69-2.61-4.06-5.59a31.52,31.52,0,0,0-5.63-5.46h-0.09Z" transform="translate(-0.03 0.02)"/><path class="cls-1" d="M619.76,59.81a5.87,5.87,0,0,1,2.91-1.53,40.65,40.65,0,0,1,4.44-1,34.69,34.69,0,0,1,4.21-.46,7.68,7.68,0,0,1,2.22.08,11.75,11.75,0,0,1-.77,3.22q-0.92,3.07-2.3,7.2t-2.91,8.5Q626,80.19,625.26,83t-1.84,6.21q-1.07,3.45-1.92,6.74a43.44,43.44,0,0,0-1.15,6.21,8.21,8.21,0,0,0,.46,4.44,6,6,0,0,0,1.69,2.53,3.25,3.25,0,0,0,2,.69q3.06,0,7.74-3.37a86.21,86.21,0,0,0,9.5-8q4.83-4.67,9-9.5a96.83,96.83,0,0,0,6.13-7.74,5.89,5.89,0,0,1,2.53-2,2.23,2.23,0,0,1,2.15.15,2.49,2.49,0,0,1,.92,2,6,6,0,0,1-1,3.22,81.43,81.43,0,0,1-7.2,10.19,151.42,151.42,0,0,1-10.11,11.34,93.09,93.09,0,0,1-10.5,9.27q-5.14,3.83-8.35,4a12,12,0,0,1-5.13-.9,16.23,16.23,0,0,1-4.6-2.76,15.79,15.79,0,0,1-3.45-4.14,11.08,11.08,0,0,1-1.53-5,58.93,58.93,0,0,1,0-10.5,130.41,130.41,0,0,1,1.65-13.6,111.56,111.56,0,0,1,3.14-13.26A28.53,28.53,0,0,1,619.76,59.81Zm21.15-32.64a9.06,9.06,0,0,1-1.73,3.26A11.64,11.64,0,0,1,636.27,33a9.41,9.41,0,0,1-3.29,1.3,3.15,3.15,0,0,1-2.76-.61q-3.22-2.45-3.37-5.29a9.18,9.18,0,0,1,1.33-5.34A15.41,15.41,0,0,1,632,18.81a10,10,0,0,1,4-2.07,3.24,3.24,0,0,1,2.83.69A6.4,6.4,0,0,1,640.6,20a11.39,11.39,0,0,1,.69,3.6,10.85,10.85,0,0,1-.38,3.52h0Z" transform="translate(-0.03 0.02)"/><path class="cls-1" d="M728.72,32.22a24.26,24.26,0,0,0-4.54-3.69,45.71,45.71,0,0,0-7-3.69A51.16,51.16,0,0,0,708.39,22a43.83,43.83,0,0,0-9.81-1.1q-11.14,0-16.4,4.08a13.5,13.5,0,0,0-5.26,11.3A12.23,12.23,0,0,0,678.57,43a14.11,14.11,0,0,0,5.1,4.55A39.8,39.8,0,0,0,692.3,51q5.18,1.49,12.08,3.22a138.88,138.88,0,0,1,15.3,4.55,43.6,43.6,0,0,1,11.53,6.12,24.93,24.93,0,0,1,7.3,8.87,28.73,28.73,0,0,1,2.59,12.79,31,31,0,0,1-3.22,14.59,27.41,27.41,0,0,1-8.79,10,38.74,38.74,0,0,1-12.91,5.61,66.66,66.66,0,0,1-15.85,1.8,79,79,0,0,1-24.56-3.84,70.31,70.31,0,0,1-21.43-11.25l8-15.07a37.06,37.06,0,0,0,5.89,4.55,54.64,54.64,0,0,0,8.94,4.63,78.17,78.17,0,0,0,11.06,3.61,50.85,50.85,0,0,0,12.4,1.49q10.36,0,16-3.61a11.85,11.85,0,0,0,5.66-10.6,11.44,11.44,0,0,0-2.12-7.06,18.19,18.19,0,0,0-6-4.94,52.78,52.78,0,0,0-9.57-3.84q-5.65-1.73-12.87-3.61a132.65,132.65,0,0,1-14.55-4.67,36.25,36.25,0,0,1-10.29-5.88,23.06,23.06,0,0,1-6.2-8.08,26.84,26.84,0,0,1-2.12-11.22,32.34,32.34,0,0,1,3.14-14.52,31,31,0,0,1,8.55-10.67A37.43,37.43,0,0,1,683,7.43a55.88,55.88,0,0,1,16-2.2,58.72,58.72,0,0,1,20.87,3.61,69.2,69.2,0,0,1,16.79,8.94Z" transform="translate(-0.03 0.02)"/><path class="cls-1" d="M835.12,101.89v15.54H758.69V6h75V21.55H776.27v31.7H826V67.84H776.27v34.05h58.85Z" transform="translate(-0.03 0.02)"/><path class="cls-1" d="M853.32,117.43V6H870.9v95.88h59.79v15.54H853.32Z" transform="translate(-0.03 0.02)"/><path class="cls-1" d="M1361.18,64c-63,0-117.41-11.81-175-24.32C1126,26.66,1063.84,13.15,988.54,13.15a3.5,3.5,0,1,1,0-7c76,0,138.62,13.59,199.12,26.73C1244.88,45.31,1298.92,57,1361.18,57A3.5,3.5,0,0,1,1361.18,64Z" transform="translate(-0.03 0.02)"/><path class="cls-1" d="M1361.18,114.93c-83.68,0-141.53-20.24-197.48-39.81C1110,56.34,1059.31,38.6,988.54,38.6a3.5,3.5,0,0,1,0-7c72,0,123.21,17.93,177.47,36.91,55.4,19.38,112.68,39.42,195.17,39.42A3.5,3.5,0,0,1,1361.18,114.93Z" transform="translate(-0.03 0.02)"/><path class="cls-1" d="M988.54,64a3.5,3.5,0,1,1,0-7c73.36,0,130.83-12.93,186.4-25.44S1288,6.15,1361.18,6.15a3.5,3.5,0,0,1,0,7c-72.4,0-129.49,12.85-184.7,25.28C1120.53,51,1062.68,64,988.54,64Z" transform="translate(-0.03 0.02)"/><path class="cls-1" d="M988.54,89.49a3.5,3.5,0,0,1,0-7c74,0,134.73-13.29,193.5-26.15,58.14-12.73,113.08-24.74,179.14-24.74a3.5,3.5,0,1,1,0,7c-65.3,0-119.87,11.94-177.65,24.58C1124.4,76.11,1063.25,89.49,988.54,89.49Z" transform="translate(-0.03 0.02)"/><path class="cls-1" d="M988.54,114.93a3.5,3.5,0,0,1,0-7c76.31,0,135.72-6.64,193.17-13.06,57-6.37,110.87-12.39,179.47-12.39a3.5,3.5,0,0,1,0,7c-68.21,0-121.88,6-178.69,12.34C1124.85,108.27,1065.24,114.93,988.54,114.93Z" transform="translate(-0.03 0.02)"/><path class="cls-1" d="M973.27,13.15H953.84a3.5,3.5,0,1,1,0-7h19.43A3.5,3.5,0,0,1,973.27,13.15Z" transform="translate(-0.03 0.02)"/><path class="cls-1" d="M973.27,38.6H953.84a3.5,3.5,0,1,1,0-7h19.43A3.5,3.5,0,0,1,973.27,38.6Z" transform="translate(-0.03 0.02)"/><path class="cls-1" d="M973.27,64H953.84a3.5,3.5,0,1,1,0-7h19.43A3.5,3.5,0,1,1,973.27,64Z" transform="translate(-0.03 0.02)"/><path class="cls-1" d="M973.27,89.49H953.84a3.5,3.5,0,1,1,0-7h19.43A3.5,3.5,0,1,1,973.27,89.49Z" transform="translate(-0.03 0.02)"/><path class="cls-1" d="M973.27,114.93H953.84a3.5,3.5,0,1,1,0-7h19.43A3.5,3.5,0,0,1,973.27,114.93Z" transform="translate(-0.03 0.02)"/></svg>