<svg id="Layer_1" data-name="Layer 1" xmlns="http://www.w3.org/2000/svg" viewBox="0 0 1364.68 191.23"><defs><style>.cls-1{fill:#362f2d;}.cls-2{fill:#2e9395;}.cls-3{fill:#f2db6b;}.cls-4{fill:#f06a44;}.cls-5{fill:#ea2049;}.cls-6{fill:#a6215a;}</style></defs><title>logo</title><path class="cls-1" d="M93.58,151.59A40.15,40.15,0,0,1,87.45,170,48.46,48.46,0,0,1,74.19,183.7,61.26,61.26,0,0,1,56,192.21a75,75,0,0,1-20.84,2.91,48.56,48.56,0,0,1-7.43-.54,55.41,55.41,0,0,1-6.21-1.3q-2.76-.77-4.67-1.46a16.86,16.86,0,0,1-2.68-1.15A6.79,6.79,0,0,1,12,188.76a6.31,6.31,0,0,1-1-3.29,16.85,16.85,0,0,1-.15-1.92,7.55,7.55,0,0,1,.15-1.46q0.15-.77.54-2.07t1-3.6q0.31-1.38,2.38-8.66t5-17.78q2.91-10.5,6.36-22.76t6.67-23.75Q36.11,92,38.72,82.71T42.55,69q-2.15,1.54-4.21,3.22t-4.21,3.68Q31.82,78,29.6,77.34t-3.14-3.76A29.49,29.49,0,0,1,26,70.37a13.16,13.16,0,0,1,.08-3.14,9.83,9.83,0,0,1,1.15-3.45,88.86,88.86,0,0,1,9.88-5.21q4.83-2.14,9.27-3.83a13,13,0,0,1,2.07-4,5.88,5.88,0,0,1,2.38-1.84,5.59,5.59,0,0,1,2.6-.31q1.38,0.15,2.91.46,3.37,0.77,4.44,2.15,2.14-.3,4.14-0.46t4.14-.15a47,47,0,0,1,15.48,2.3,30.39,30.39,0,0,1,10.8,6.21,22.54,22.54,0,0,1,6.05,9.12,26.52,26.52,0,0,1,1.38,11,36.59,36.59,0,0,1-2.68,10.5,55.68,55.68,0,0,1-5.9,10.73,78.81,78.81,0,0,1-8.58,10.27,75.68,75.68,0,0,1-10.88,9.12,40.9,40.9,0,0,1,8.43,6.44,37.83,37.83,0,0,1,6.13,8A33.46,33.46,0,0,1,92.81,143,27.8,27.8,0,0,1,93.58,151.59ZM40.25,124.16Q38.1,132.44,36,142.09q-2,8.27-4.29,19.23l-4.9,23.37a5.46,5.46,0,0,0,2.45,1.07l3.06,0.61a20.7,20.7,0,0,0,3.68.31,37.76,37.76,0,0,0,14-2.84,45.37,45.37,0,0,0,23.14-20.69,41.49,41.49,0,0,0,4.83-16.63,23.17,23.17,0,0,0-.54-7.43,22.33,22.33,0,0,0-2.45-6,24.59,24.59,0,0,0-3.68-4.75,28.73,28.73,0,0,0-4.37-3.6,84.72,84.72,0,0,1-15.48,6.44,9,9,0,0,1-4.75.23,8.72,8.72,0,0,1-3.37-1.69,8.29,8.29,0,0,1-2.15-2.68A8.63,8.63,0,0,1,40.25,124.16ZM42.85,114q-0.31,1.53-.69,3.07t-0.84,3.22a16.68,16.68,0,0,1,6.21-3.68A23.19,23.19,0,0,1,55.88,115a36.09,36.09,0,0,1,4.14.23q2,0.23,3.83.54a42.25,42.25,0,0,0,8.28-7.13,58.48,58.48,0,0,0,7-9.35A60.17,60.17,0,0,0,84,89.07a40.21,40.21,0,0,0,2.38-9.66q0.92-10.57-3.6-15.71T70,58.57a36.34,36.34,0,0,0-11.49,2q-1.23,4-3.06,9.89T51.51,83.4L47.14,98.26Q44.85,106.08,42.85,114Z" transform="translate(-10.82 -48.57)"/><path class="cls-1" d="M152.28,141.63a53.35,53.35,0,0,1-4.14,10.88,35.91,35.91,0,0,1-6.21,8.74,27.08,27.08,0,0,1-8.12,5.75,23.48,23.48,0,0,1-9.88,2.07q-6.29,0-9.88-2.68a16.51,16.51,0,0,1-5.36-6.67,26.75,26.75,0,0,1-2.15-8.74q-0.38-4.75-.38-8.89a33.77,33.77,0,0,1,.69-6.44,57.82,57.82,0,0,1,1.92-7.2,50.28,50.28,0,0,1,3.14-7.36,36.08,36.08,0,0,1,4.52-6.74,12.62,12.62,0,0,1,2.84-4.6,16.81,16.81,0,0,1,4.44-3.29,23.91,23.91,0,0,1,5.44-2,24.54,24.54,0,0,1,5.67-.69,2.28,2.28,0,0,1,.84.15c0.25,0.1.54,0.21,0.84,0.31a15.35,15.35,0,0,1,5,1.53,21.18,21.18,0,0,1,5.82,4.14,23,23,0,0,1,6.82,17.17q0,1.23-.15,3t-0.31,3a76.21,76.21,0,0,0,7.36-3.37q3.83-2,7.43-4.21t6.67-4.52a46.48,46.48,0,0,0,4.9-4.14,5.49,5.49,0,0,1,2.61-1.53,1.39,1.39,0,0,1,1.53.61,2.92,2.92,0,0,1,.15,2.15,7.74,7.74,0,0,1-1.69,3.06,46.7,46.7,0,0,1-3.91,3.68q-3.14,2.76-7.43,6T161.93,137A48.09,48.09,0,0,1,152.28,141.63Zm-35.71,3.68a47.46,47.46,0,0,0,.31,5.44,16.14,16.14,0,0,0,1.23,4.75,9.27,9.27,0,0,0,2.45,3.37,5.93,5.93,0,0,0,4,1.3,10.07,10.07,0,0,0,5.06-1.3,16.18,16.18,0,0,0,4.14-3.37,25.26,25.26,0,0,0,3.29-4.75,42.6,42.6,0,0,0,2.53-5.59q-1.07.16-2.07,0.23c-0.67.05-1.41,0.08-2.22,0.08a15.35,15.35,0,0,1-10-3.45,22.71,22.71,0,0,1-6.51-8.81q-0.92,3.22-1.53,6.28A29.66,29.66,0,0,0,116.57,145.31Zm9.81-27a9.17,9.17,0,0,0-.46,2.91,44.83,44.83,0,0,0,.31,5.13,12.42,12.42,0,0,0,1.53,4.83,9.59,9.59,0,0,0,3.91,3.6,15.71,15.71,0,0,0,7.43,1.46,15,15,0,0,0,1.53-.08q0.76-.08,1.53-0.23,0.46-2,.84-3.6a12.52,12.52,0,0,0,.38-2.84,29.31,29.31,0,0,0,0-6,26,26,0,0,0-1.15-5.59,13.17,13.17,0,0,0-2.15-4.14,3.92,3.92,0,0,0-3.14-1.61,10.71,10.71,0,0,0-5.59,1.61A18.66,18.66,0,0,0,126.38,118.34Z" transform="translate(-10.82 -48.57)"/><path class="cls-1" d="M187.68,168.45a21.27,21.27,0,0,1-9.5-1.84,15.82,15.82,0,0,1-8.66-10.34,22.29,22.29,0,0,1-.84-5.75,65.86,65.86,0,0,1,.77-9.73q0.77-5.13,1.84-9.5t1.92-7.43q0.84-3.06,1.15-3.83a29.28,29.28,0,0,1,3.6-7.74,11.22,11.22,0,0,1,6.21-4.52l3.22-.61a26,26,0,0,1,2.84-.15,7.61,7.61,0,0,1,2.68.46q-4.14,10.57-6.51,17.62t-3.6,11.49a52.42,52.42,0,0,0-1.69,8.12q-0.77,6.9,1.23,10.42t8.12,3.52a12,12,0,0,0,7.66-3,32.67,32.67,0,0,0,6.74-7.74,27.39,27.39,0,0,1-.46-5.06,53.84,53.84,0,0,1,.84-9.58q0.84-4.67,2-8.74a71.11,71.11,0,0,1,2.45-7.28q1.3-3.22,2.22-5.06,1.68-3.68,3.06-4.52a9.84,9.84,0,0,1,4.44-1,9.14,9.14,0,0,1,3.52.15q1.84,0.46,1.84,1.84,0,2.45-.31,7.36a46.15,46.15,0,0,1-1.84,10.11q-1.07,4.29-2.07,7.28t-1.92,5.06a19.91,19.91,0,0,1-1.84,3.37l-1.69,2.38q0.31,4.6.77,7.36a16.66,16.66,0,0,0,1.15,4.21,4.16,4.16,0,0,0,1.69,2,4.58,4.58,0,0,0,2.22.54,9.23,9.23,0,0,0,5.06-2.07,48.06,48.06,0,0,0,6.05-5.21q3.14-3.14,6.28-6.9t5.75-7.13q2.6-3.37,4.44-5.9l2.3-3.14a4.56,4.56,0,0,1,2.07-1.69,1.59,1.59,0,0,1,1.61.23,2.37,2.37,0,0,1,.69,1.69,4.64,4.64,0,0,1-.69,2.53,119.55,119.55,0,0,1-7.59,12.34,108.17,108.17,0,0,1-9.66,12,67.45,67.45,0,0,1-10.34,9.2Q221.7,168,217.1,168a8,8,0,0,1-6.51-2.83,23.94,23.94,0,0,1-4.06-8.2,27,27,0,0,1-8.28,8.51A19.46,19.46,0,0,1,187.68,168.45Z" transform="translate(-10.82 -48.57)"/><path class="cls-1" d="M298.79,127.23a2.59,2.59,0,0,1,1.61-1.15,1.88,1.88,0,0,1,1.61.23,2,2,0,0,1,.69,1.53,6.11,6.11,0,0,1-.84,2.91,99.56,99.56,0,0,1-8,12.57A141.69,141.69,0,0,1,283.31,156a78.93,78.93,0,0,1-10.73,9.73q-5.21,3.83-8.74,3.83a16.35,16.35,0,0,1-8.43-2,15.81,15.81,0,0,1-5.29-4.9,18.9,18.9,0,0,1-2.68-6.36,19.71,19.71,0,0,1-.46-6.36q0.15-2.45,1.07-8.81t2.45-14.71Q252,118,254,108.45T258,90l-5.21.61a40.6,40.6,0,0,1-4.75.31,36.28,36.28,0,0,1-9.27-1.15,35.87,35.87,0,0,1-6.51-2.22,1.64,1.64,0,0,1-1.07-1.76,5.47,5.47,0,0,1,.92-2.3,7.94,7.94,0,0,1,1.92-2,3.65,3.65,0,0,1,2.07-.84q2.91,0.31,6.28.54a69,69,0,0,0,7.36.08q2.91-.15,5.59-0.46t5.29-.77q2-7.36,3.91-12.8A33.13,33.13,0,0,1,268,59.64a3.71,3.71,0,0,1,2.07-1.3,18,18,0,0,1,3.45-.77,13.56,13.56,0,0,1,3.52,0,3.71,3.71,0,0,1,2.45,1.15q0.77,1.23.61,6.28a82.81,82.81,0,0,1-1.69,12.87,84,84,0,0,1,11.42.69q5,0.69,8.51,1.53A44.43,44.43,0,0,1,304,81.79q2.14,0.85,3.22,1.15a1.53,1.53,0,0,1,1.15,1.53A5.68,5.68,0,0,1,307.9,87a5.28,5.28,0,0,1-1.76,2.22,3.32,3.32,0,0,1-2.76.61,25.89,25.89,0,0,1-3.45-.61,39.43,39.43,0,0,0-4.6-.77q-2.68-.3-6.36-0.61t-8.58-.31q-0.92,0-2.07.08c-0.77.05-1.56,0.08-2.37,0.08q-0.61,2.45-1.15,4.83a44.7,44.7,0,0,1-1.46,5q-2,6.13-4.6,13.33-2.3,6.29-5.52,14.41T256,142.55q-0.92,6.59.23,10a11.6,11.6,0,0,0,2.84,5,8,8,0,0,0,4.9,1.84q2.3,0.31,5.59-1.61a40.42,40.42,0,0,0,6.82-5.13q3.52-3.22,7.13-7t6.67-7.51q3.06-3.68,5.36-6.67T298.79,127.23Z" transform="translate(-10.82 -48.57)"/><path class="cls-1" d="M311.2,160.79a4.19,4.19,0,0,0,2.38.61,7.43,7.43,0,0,0,2.91-.61,11.09,11.09,0,0,0,2.76-1.69,6.27,6.27,0,0,0,1.92-2.76,9.49,9.49,0,0,0,0-4.83,46,46,0,0,0-1.92-6.74q-1.3-3.6-2.83-7.28t-2.61-6.74q-0.92-2.3-1.53-4.29-0.61-1.68-1.15-3.29a20.09,20.09,0,0,0-.84-2.22q-0.77,1.23-2.68,4t-4.14,5.75q-2.22,3-4.21,5.52t-2.76,3.45a4.59,4.59,0,0,1-2.38,1.61,2.09,2.09,0,0,1-1.92-.46,2.76,2.76,0,0,1-.84-2,5.39,5.39,0,0,1,1.15-3.14q0.92-1.22,2.76-3.91t3.68-5.52q1.84-2.83,3.37-5.06a19.35,19.35,0,0,0,1.69-2.68,4.6,4.6,0,0,0-.84-3.22,5.66,5.66,0,0,1-.38-4.6,16,16,0,0,1,2.76-5,28.25,28.25,0,0,1,5.06-5.13,22.25,22.25,0,0,1,6-3.45,6.67,6.67,0,0,1,5.52.08,13.32,13.32,0,0,1,3.22,2.68,3.47,3.47,0,0,1,.92,3q-0.31.77-.92,2a25.3,25.3,0,0,1-1.84,3q-1.23,1.76-3.52,4.52a43.16,43.16,0,0,0,1.3,6.44q0.84,2.91,1.61,5.06a41.26,41.26,0,0,0,2,4.75q1.38,2.76,2.91,5.67t2.76,5.75a54.93,54.93,0,0,1,2,5.29,8.88,8.88,0,0,1,.46,4.14,19.33,19.33,0,0,1-2.68,6.28,41.22,41.22,0,0,1-5.52,7.13,34,34,0,0,1-7.51,5.9,17.3,17.3,0,0,1-8.81,2.45,11.05,11.05,0,0,1-6.21-2,21.79,21.79,0,0,1-8.12-10q-1-2.6-.23-4a22.12,22.12,0,0,1,1.69-2.91,16,16,0,0,1,2.3-2.45c0.41-.31.92-0.66,1.53-1.07a11.13,11.13,0,0,1,2.15-.92l3.22-1.07a70.55,70.55,0,0,0,2.76,7.43q1.22,2.68,2,4.21A7.72,7.72,0,0,0,311.2,160.79Z" transform="translate(-10.82 -48.57)"/><path class="cls-1" d="M437.48,136.73q-0.77,4.75-1.46,9t-0.84,6.9q-0.15,3.83,1.38,5.52a4.5,4.5,0,0,0,3.37,1.69q2.14,0,5.29-2.15a61.59,61.59,0,0,0,6.67-5.36q3.52-3.22,7-7t6.51-7.28q3-3.45,5.06-6.05t2.84-3.37a3.49,3.49,0,0,1,1.92-1.07,2.07,2.07,0,0,1,1.61.31,2,2,0,0,1,.61,1.69,6,6,0,0,1-1.23,3.07q-1.84,2.91-4.75,6.82t-6.44,8q-3.53,4.14-7.43,8.12a81,81,0,0,1-7.82,7,51.61,51.61,0,0,1-7.51,5,14.14,14.14,0,0,1-6.51,1.92,7.41,7.41,0,0,1-4.06-1.23,13.64,13.64,0,0,1-3.45-3.22,15.39,15.39,0,0,1-2.37-4.44,12.51,12.51,0,0,1-.69-4.9q0.15-1.07.46-3.68a65.06,65.06,0,0,1-13,11.42q-6.52,4.21-12.49,4.21a11.54,11.54,0,0,1-4.6-1.07,11.3,11.3,0,0,1-4.37-3.53,19.81,19.81,0,0,1-3.14-6.44,28,28,0,0,1-.92-9.65,54.54,54.54,0,0,1,3.52-16.86,52.49,52.49,0,0,1,7.74-13.87,37.91,37.91,0,0,1,10.57-9.35,23.33,23.33,0,0,1,11.88-3.45,9,9,0,0,1,4.75,1.3,12.86,12.86,0,0,1,3.68,3.37,20.7,20.7,0,0,1,2.53,4.52,27.87,27.87,0,0,1,1.46,4.6q1.07-4.44,2-8.74t1.84-8.12q1.53-5.67,3.22-12.26l3.52-13q2-7.36,4.44-15.48a13.61,13.61,0,0,1,2.91-1.84,16.33,16.33,0,0,1,2.6-.92,8.25,8.25,0,0,1,2.61-.46,9.31,9.31,0,0,1,2.76.38,3.71,3.71,0,0,1,2.07,2,13.67,13.67,0,0,1,1.15,4.83,61.61,61.61,0,0,1,0,8.74,72,72,0,0,1-2.38,14.71,141.17,141.17,0,0,1-5.44,16.47q-3.37,8.5-7.74,17A171.74,171.74,0,0,1,437.48,136.73Zm-9,2q0.61-2.91,1.15-5.82t1.3-6a5.14,5.14,0,0,0-.54.31,4.62,4.62,0,0,1-.54.31q-1.69.77-2.3-.08a4.61,4.61,0,0,1-.61-2.68q0-.92-0.15-3.29a24.77,24.77,0,0,0-.84-4.9,13.71,13.71,0,0,0-2.07-4.44,4.46,4.46,0,0,0-3.83-1.92q-3.53,0-7.2,3.6a47.4,47.4,0,0,0-6.9,8.74,58.89,58.89,0,0,0-5.36,11,37.86,37.86,0,0,0-2.45,10.42q-0.31,7.36,1.84,10.57a6.66,6.66,0,0,0,5.82,3.22,11.32,11.32,0,0,0,6.05-2.15,42.29,42.29,0,0,0,6.44-5.21,83.49,83.49,0,0,0,5.82-6.28Q426.75,140.87,428.44,138.72Z" transform="translate(-10.82 -48.57)"/><path class="cls-1" d="M534,134.12a116.91,116.91,0,0,1-10.42,13.1,94.91,94.91,0,0,1-12.34,11.34,67.64,67.64,0,0,1-13.33,8,32.26,32.26,0,0,1-13.26,3.06,19.22,19.22,0,0,1-7.28-1.61,20.75,20.75,0,0,1-7.13-5,24.22,24.22,0,0,1-5.13-8.74,30,30,0,0,1-1.15-13,40.34,40.34,0,0,1,3.91-13.26,60.39,60.39,0,0,1,8.12-12.8,46.22,46.22,0,0,1,10.88-9.66,22.61,22.61,0,0,1,12.18-3.83q5.82,0,8.43,2.91a9.35,9.35,0,0,1,2.3,7.2,22.11,22.11,0,0,1-2.68,8.74,35.38,35.38,0,0,1-5.29,7.2,53.74,53.74,0,0,1-6.51,5.82q-3.45,2.61-6.51,4.75l-6.44,4.37q-3.07,2.07-5.36,3.75A16.6,16.6,0,0,0,478.4,153a12.63,12.63,0,0,0,3.06,4.21,10.94,10.94,0,0,0,4.21,2.3,17.22,17.22,0,0,0,4.83.69,21.69,21.69,0,0,0,10.88-3.29,74.57,74.57,0,0,0,11.11-8,122.34,122.34,0,0,0,10.11-9.73q4.67-5.06,7.74-8.74a4.11,4.11,0,0,1,2.22-1.46,1.91,1.91,0,0,1,2.53,2.15A5.77,5.77,0,0,1,534,134.12Zm-39.23-23.6a7.9,7.9,0,0,0-4.37,1.84,22.75,22.75,0,0,0-5,5.29,45.9,45.9,0,0,0-4.6,8.43,49.25,49.25,0,0,0-3.22,11.42q1.84-1.38,4-2.83t4.29-3.14q6.59-5.06,9.2-8.89A15.52,15.52,0,0,0,498,116q0.31-2.91-.61-4.21A3,3,0,0,0,494.8,110.52Z" transform="translate(-10.82 -48.57)"/><path class="cls-1" d="M570,150.06a10.8,10.8,0,0,1-2.38-3.29,16,16,0,0,1-1-3.14,9.38,9.38,0,0,1,0-3.37,14.07,14.07,0,0,1,1.84-4,19,19,0,0,1,2.91-3.45,20,20,0,0,1,4.9-3.29q2-4.9,3.6-10.34t2.84-9.88q1.38-5.21,2.45-10.42,3.83-13,4-21.22a71,71,0,0,0-.31-10.8q-0.15-1.07-.31-2.15a17,17,0,0,1-.54-2.07q-0.23-1.15-.54-2.22,1.68-.92,3-1.53a21.58,21.58,0,0,1,2.22-.92,8.8,8.8,0,0,1,2-.61,35.7,35.7,0,0,1,6.67-.84q3.14-.08,3.45,1.15,0.15,0.77.38,2.76a44,44,0,0,1,.23,4.9,51.91,51.91,0,0,1-.46,6.51,45.47,45.47,0,0,1-1.69,7.59q-1.07,3.53-2.91,9.81-1.69,5.37-4.44,14.33t-7.2,22.91q4.6-1.53,10.11-2.91t11.26-2.3q5.75-.92,11.49-1.38a75.22,75.22,0,0,1,10.65-.15,1.33,1.33,0,0,1,1.3.84,2.13,2.13,0,0,1,0,1.76,4.18,4.18,0,0,1-1.69,1.76,7.83,7.83,0,0,1-3.75,1l-6.74.69q-3.68.38-7.59,1.07t-7.74,1.69a56.78,56.78,0,0,0-7.2,2.38l-5.21,1.84q-2.15.77-4.52,1.76t-3.91,1.76l-3.52,11.19a59.09,59.09,0,0,1,13.72,12.87,54.52,54.52,0,0,1,7,12.11A38.61,38.61,0,0,1,605.29,185a48.24,48.24,0,0,1-2,13.56,69,69,0,0,1-5.29,13,71.16,71.16,0,0,1-7.66,11.57,60.19,60.19,0,0,1-9.2,9.2,39.43,39.43,0,0,1-9.81,5.82,19.79,19.79,0,0,1-9.42,1.53,9.7,9.7,0,0,1-5.36-2.07,10.9,10.9,0,0,1-3.22-4.44,18.36,18.36,0,0,1-1.23-6,23.39,23.39,0,0,1,.61-6.51q0.61-3.22,2.6-12,1.69-7.36,5.21-21.38T570,150.06Zm9,7.2q-2.15,7.67-3.75,14.1t-2.68,11.34q-1.38,5.67-2.15,10.27-1.38,5.82-2.84,11.49t-2.3,10.19a32.16,32.16,0,0,0-.69,7.28q0.15,2.76,2,2.76,4.44,0.3,9.27-3.45a42.85,42.85,0,0,0,8.81-9.5,60.18,60.18,0,0,0,6.59-12.41A34.11,34.11,0,0,0,594,187a40,40,0,0,0-2-12.41,52,52,0,0,0-3.22-6.28q-1.69-2.61-4.06-5.59A31.52,31.52,0,0,0,579.09,157.26Z" transform="translate(-10.82 -48.57)"/><path class="cls-1" d="M630.58,108.38a5.87,5.87,0,0,1,2.91-1.53,40.65,40.65,0,0,1,4.44-1,34.69,34.69,0,0,1,4.21-.46,7.68,7.68,0,0,1,2.22.08,11.75,11.75,0,0,1-.77,3.22q-0.92,3.07-2.3,7.2t-2.91,8.5q-1.53,4.37-2.3,7.13t-1.84,6.21q-1.07,3.45-1.92,6.74a43.44,43.44,0,0,0-1.15,6.21,8.21,8.21,0,0,0,.46,4.44,6,6,0,0,0,1.69,2.53,3.25,3.25,0,0,0,2,.69q3.06,0,7.74-3.37a86.21,86.21,0,0,0,9.5-8q4.83-4.67,9-9.5a96.83,96.83,0,0,0,6.13-7.74,5.89,5.89,0,0,1,2.53-2,2.23,2.23,0,0,1,2.15.15,2.49,2.49,0,0,1,.92,2,6,6,0,0,1-1,3.22,81.43,81.43,0,0,1-7.2,10.19,151.42,151.42,0,0,1-10.11,11.34,93.09,93.09,0,0,1-10.5,9.27q-5.14,3.83-8.35,4A12,12,0,0,1,631,167a16.23,16.23,0,0,1-4.6-2.76,15.79,15.79,0,0,1-3.45-4.14,11.08,11.08,0,0,1-1.53-5,58.93,58.93,0,0,1,0-10.5A130.4,130.4,0,0,1,623.07,131a111.56,111.56,0,0,1,3.14-13.26A28.53,28.53,0,0,1,630.58,108.38Zm21.15-32.64A9.06,9.06,0,0,1,650,79a11.64,11.64,0,0,1-2.91,2.61,9.41,9.41,0,0,1-3.29,1.3,3.15,3.15,0,0,1-2.76-.61q-3.22-2.45-3.37-5.29A9.18,9.18,0,0,1,639,71.67a15.41,15.41,0,0,1,3.83-4.29,10,10,0,0,1,4-2.07,3.24,3.24,0,0,1,2.83.69,6.4,6.4,0,0,1,1.76,2.61,11.39,11.39,0,0,1,.69,3.6A10.85,10.85,0,0,1,651.73,75.73Z" transform="translate(-10.82 -48.57)"/><path class="cls-1" d="M739.54,80.79A24.26,24.26,0,0,0,735,77.1a45.71,45.71,0,0,0-7-3.69,51.16,51.16,0,0,0-8.79-2.82,43.83,43.83,0,0,0-9.81-1.1q-11.14,0-16.4,4.08a13.5,13.5,0,0,0-5.26,11.3,12.23,12.23,0,0,0,1.65,6.67,14.11,14.11,0,0,0,5.1,4.55,39.8,39.8,0,0,0,8.63,3.45q5.18,1.49,12.08,3.22a138.88,138.88,0,0,1,15.3,4.55,43.6,43.6,0,0,1,11.53,6.12,24.93,24.93,0,0,1,7.3,8.87,28.73,28.73,0,0,1,2.59,12.79,31,31,0,0,1-3.22,14.59,27.41,27.41,0,0,1-8.79,10A38.74,38.74,0,0,1,727,165.29a66.66,66.66,0,0,1-15.85,1.8,79,79,0,0,1-24.56-3.84A70.31,70.31,0,0,1,665.16,152l8-15.07a37.06,37.06,0,0,0,5.89,4.55,54.64,54.64,0,0,0,8.94,4.63,78.17,78.17,0,0,0,11.06,3.61,50.85,50.85,0,0,0,12.4,1.49q10.36,0,16-3.61A11.85,11.85,0,0,0,733.11,137a11.44,11.44,0,0,0-2.12-7.06,18.19,18.19,0,0,0-6-4.94,52.78,52.78,0,0,0-9.57-3.84q-5.65-1.73-12.87-3.61A132.65,132.65,0,0,1,688,112.88,36.25,36.25,0,0,1,677.71,107a23.06,23.06,0,0,1-6.2-8.08,26.84,26.84,0,0,1-2.12-11.22,32.34,32.34,0,0,1,3.14-14.52,31,31,0,0,1,8.55-10.67A37.43,37.43,0,0,1,693.87,56a55.88,55.88,0,0,1,16-2.2,58.72,58.72,0,0,1,20.87,3.61,69.2,69.2,0,0,1,16.79,8.94Z" transform="translate(-10.82 -48.57)"/><path class="cls-1" d="M845.94,150.46V166H769.51V54.58h75V70.12H787.09v31.7h49.75v14.59H787.09v34.05h58.85Z" transform="translate(-10.82 -48.57)"/><path class="cls-1" d="M864.14,166V54.58h17.58v95.88h59.79V166H864.14Z" transform="translate(-10.82 -48.57)"/><path class="cls-2" d="M1372,112.61c-63,0-117.41-11.81-175-24.32-60.15-13.06-122.34-26.57-197.64-26.57a3.5,3.5,0,1,1,0-7c76,0,138.62,13.59,199.12,26.73,57.22,12.43,111.26,24.16,173.52,24.16A3.5,3.5,0,0,1,1372,112.61Z" transform="translate(-10.82 -48.57)"/><path class="cls-3" d="M1372,163.5c-83.68,0-141.53-20.24-197.48-39.81-53.68-18.78-104.39-36.52-175.16-36.52a3.5,3.5,0,1,1,0-7c72,0,123.21,17.93,177.47,36.91,55.4,19.38,112.68,39.42,195.17,39.42A3.5,3.5,0,0,1,1372,163.5Z" transform="translate(-10.82 -48.57)"/><path class="cls-4" d="M999.36,112.61a3.5,3.5,0,0,1,0-7c73.36,0,130.83-12.93,186.4-25.44S1298.83,54.72,1372,54.72a3.5,3.5,0,0,1,0,7c-72.4,0-129.49,12.85-184.7,25.28C1131.35,99.59,1073.5,112.61,999.36,112.61Z" transform="translate(-10.82 -48.57)"/><path class="cls-5" d="M999.36,138.06a3.5,3.5,0,0,1,0-7c74,0,134.73-13.29,193.5-26.15C1251,92.18,1305.94,80.17,1372,80.17a3.5,3.5,0,0,1,0,7c-65.3,0-119.87,11.94-177.65,24.58C1135.22,124.68,1074.07,138.06,999.36,138.06Z" transform="translate(-10.82 -48.57)"/><path class="cls-6" d="M999.36,163.5a3.5,3.5,0,1,1,0-7c76.31,0,135.72-6.64,193.17-13.06,57-6.37,110.87-12.39,179.47-12.39a3.5,3.5,0,0,1,0,7c-68.21,0-121.88,6-178.69,12.34C1135.67,156.84,1076.06,163.5,999.36,163.5Z" transform="translate(-10.82 -48.57)"/><path class="cls-2" d="M984.09,61.72H964.66a3.5,3.5,0,0,1,0-7h19.43A3.5,3.5,0,0,1,984.09,61.72Z" transform="translate(-10.82 -48.57)"/><path class="cls-3" d="M984.09,87.17H964.66a3.5,3.5,0,1,1,0-7h19.43A3.5,3.5,0,0,1,984.09,87.17Z" transform="translate(-10.82 -48.57)"/><path class="cls-4" d="M984.09,112.61H964.66a3.5,3.5,0,0,1,0-7h19.43A3.5,3.5,0,0,1,984.09,112.61Z" transform="translate(-10.82 -48.57)"/><path class="cls-5" d="M984.09,138.06H964.66a3.5,3.5,0,0,1,0-7h19.43A3.5,3.5,0,0,1,984.09,138.06Z" transform="translate(-10.82 -48.57)"/><path class="cls-6" d="M984.09,163.5H964.66a3.5,3.5,0,1,1,0-7h19.43A3.5,3.5,0,0,1,984.09,163.5Z" transform="translate(-10.82 -48.57)"/></svg>