<?xml version="1.0" standalone="no"?>
<!DOCTYPE svg PUBLIC "-//W3C//DTD SVG 20010904//EN"
 "http://www.w3.org/TR/2001/REC-SVG-20010904/DTD/svg10.dtd">
<svg version="1.0" xmlns="http://www.w3.org/2000/svg"
 width="16.000000pt" height="16.000000pt" viewBox="0 0 16.000000 16.000000"
 preserveAspectRatio="xMidYMid meet">
<metadata>
Created by potrace 1.11, written by Peter Selinger 2001-2013
</metadata>
<g transform="translate(0.000000,16.000000) scale(0.002286,-0.002286)"
fill="#000000" stroke="none">
<path d="M3285 6994 c-203 -20 -276 -28 -375 -45 -610 -105 -1195 -376 -1665
-772 -95 -81 -310 -294 -394 -392 -468 -542 -742 -1176 -833 -1925 -17 -137
-17 -583 0 -720 69 -569 227 -1028 514 -1491 145 -236 311 -440 525 -649 204
-200 371 -332 592 -468 463 -287 922 -445 1491 -514 137 -17 583 -17 720 0
569 69 1028 227 1491 514 360 222 692 528 958 882 323 430 549 960 640 1501
38 223 46 327 46 585 0 258 -8 362 -46 585 -105 627 -382 1216 -800 1700 -84
98 -299 311 -394 392 -518 437 -1148 710 -1845 798 -117 15 -536 28 -625 19z
m-2408 -2505 c15 -6 71 -12 123 -14 112 -3 182 -22 242 -68 120 -92 139 -220
57 -386 -35 -71 -60 -103 -141 -185 l-99 -99 23 -16 c59 -41 100 -89 130 -149
30 -60 33 -76 33 -152 -1 -74 -5 -94 -32 -153 -72 -151 -234 -267 -431 -306
-120 -24 -317 -6 -379 34 -41 27 -38 61 26 287 33 117 108 384 166 593 58 209
108 386 110 393 7 18 1 16 -51 -28 -50 -41 -84 -50 -102 -27 -17 21 -23 72
-13 100 11 28 85 75 161 103 31 11 53 28 68 50 24 37 56 44 109 23z m1835 -94
c16 -109 -17 -245 -191 -795 -17 -52 -28 -96 -26 -98 1 -2 34 6 72 16 135 40
345 72 465 72 59 0 68 -2 68 -18 0 -36 -34 -52 -126 -62 -168 -19 -339 -64
-486 -128 -45 -20 -48 -23 -67 -90 -12 -38 -21 -74 -21 -79 0 -6 24 -29 53
-52 128 -98 233 -269 257 -417 5 -29 4 -83 -1 -125 -41 -327 -326 -668 -559
-669 -134 0 -185 101 -145 292 22 105 151 640 191 795 35 131 35 131 16 163
l-19 31 -56 -69 c-108 -132 -235 -234 -308 -247 -30 -6 -41 -2 -69 21 -37 32
-60 79 -60 125 l0 31 -56 -52 c-111 -101 -223 -132 -280 -79 -114 105 -68 396
87 552 66 65 130 97 198 97 40 0 52 -5 79 -32 17 -18 38 -49 46 -68 l14 -35 7
30 c62 272 143 556 166 579 13 14 33 20 66 20 47 1 48 0 61 -39 42 -123 -42
-424 -193 -696 -58 -105 -67 -127 -77 -201 -6 -46 -8 -96 -4 -111 9 -38 39
-51 74 -33 80 42 237 202 320 330 21 31 54 67 74 81 33 22 41 37 72 133 19 59
56 191 82 292 42 164 48 200 52 320 2 82 0 151 -7 175 -6 24 -7 43 -2 48 22
22 119 47 171 44 l55 -2 7 -50z m972 31 c77 -21 185 -69 251 -112 l54 -34 -50
-90 c-28 -49 -54 -92 -59 -95 -5 -3 -22 6 -38 20 -47 39 -170 94 -252 111
-107 23 -234 14 -307 -21 -95 -47 -135 -144 -98 -240 30 -81 75 -104 342 -175
318 -86 419 -144 483 -274 50 -104 50 -253 -1 -361 -47 -101 -151 -182 -279
-219 -182 -53 -457 -32 -654 50 -74 31 -206 111 -206 126 0 11 74 156 94 183
12 16 16 15 62 -20 62 -48 173 -100 272 -127 103 -29 284 -31 357 -5 90 32
135 89 135 172 0 113 -74 169 -311 235 -422 117 -518 183 -550 380 -34 204 78
393 281 474 118 47 343 57 474 22z m1616 -91 l0 -105 -390 0 -390 0 0 -215 0
-215 338 -2 337 -3 3 -97 3 -98 -341 0 -340 0 0 -235 0 -235 400 0 400 0 0
-105 0 -105 -520 0 -520 0 0 760 0 760 510 0 510 0 0 -105z m510 -550 l0 -655
410 0 410 0 0 -105 0 -105 -530 0 -530 0 0 760 0 760 120 0 120 0 0 -655z"/>
<path d="M931 4390 c-25 -5 -48 -13 -51 -17 -13 -15 -180 -586 -180 -616 0 -4
19 3 43 15 33 18 59 23 121 23 77 0 80 1 123 39 134 117 219 351 169 470 -31
74 -120 108 -225 86z"/>
<path d="M651 3561 c-17 -69 -46 -202 -66 -296 -19 -93 -37 -178 -39 -188 -6
-25 24 -37 97 -37 160 0 323 109 397 264 40 87 56 173 41 233 -14 55 -52 115
-88 138 -23 15 -28 14 -99 -14 -120 -49 -138 -49 -178 -9 l-35 35 -30 -126z"/>
<path d="M1555 3488 c-88 -92 -158 -271 -141 -364 9 -44 46 -84 79 -84 62 0
239 167 252 238 3 20 9 47 11 58 4 15 0 23 -14 26 -15 4 -20 18 -26 63 -10 89
-28 115 -80 115 -23 0 -42 -12 -81 -52z"/>
<path d="M2321 2950 c-18 -66 -52 -206 -76 -312 -24 -106 -53 -233 -64 -281
-26 -109 -28 -192 -5 -201 26 -10 88 12 135 48 110 84 217 266 240 409 18 111
-17 248 -87 344 -34 47 -96 113 -105 113 -3 0 -21 -54 -38 -120z"/>
</g>
</svg>
